<svg width="1440" height="739" viewBox="0 0 1440 739" fill="none" xmlns="http://www.w3.org/2000/svg">
<mask id="mask0" mask-type="alpha" maskUnits="userSpaceOnUse" x="0" y="0" width="1440" height="739">
<rect width="1440" height="739" fill="#C4C4C4"/>
</mask>
<g mask="url(#mask0)">
<path opacity="0.1" d="M-58.5713 457.521C-37.3826 479.653 -27.3667 507.17 -19.4923 535.878C-11.9104 563.512 -5.05309 591.987 12.0263 615.805C47.2372 664.907 110.532 685.619 168.967 693.332C234.261 701.95 302.665 698.139 365.252 720.99C395.943 732.195 424.613 751.213 439.969 780.152C452.692 804.13 451.789 830.273 443.029 855.304C438.054 869.524 431.251 882.99 424.251 896.367L430.361 899.801C432.352 896.012 434.323 892.222 436.231 888.417C447.318 866.306 457.447 842.548 457.003 817.502C456.499 789.054 441.36 762.661 419.809 744.048C393.51 721.333 359.213 709.616 325.269 702.827C292.562 696.286 259.152 694.215 225.922 691.793C162.5 687.172 93.4961 679.877 42.8671 638.335C31.0256 628.616 20.7064 617.184 12.8151 604.187C5.02525 591.358 -0.203912 577.324 -4.52447 563.077C-12.978 535.204 -18.2543 505.958 -32.8497 480.255C-47.9374 453.683 -72.2773 432.038 -100.778 419.738C-100.821 419.719 -100.864 419.703 -100.906 419.685L-104.52 425.778C-87.2368 433.152 -71.5428 443.974 -58.5713 457.521Z" fill="url(#paint0_linear)"/>
<path d="M1024.36 231.448C1023.67 230.654 1022.93 230.168 1022.99 229.8C1023.08 229.28 1023.66 228.641 1024.19 228.458C1024.46 228.361 1025.39 229.098 1025.42 229.505C1025.46 230.009 1024.88 230.561 1024.36 231.448Z" fill="#30293C"/>
<path d="M1032.38 229.511C1033 230.272 1033.59 230.688 1033.63 231.153C1033.67 231.518 1032.98 232.299 1032.7 232.264C1032.2 232.203 1031.48 231.718 1031.38 231.298C1031.29 230.895 1031.88 230.349 1032.38 229.511Z" fill="#30293C"/>
<path d="M1042.39 232.27C1041.72 232.808 1041.31 233.394 1040.91 233.389C1040.49 233.384 1040.07 232.811 1039.66 232.488C1040.04 232.063 1040.35 231.432 1040.82 231.288C1041.13 231.192 1041.67 231.792 1042.39 232.27Z" fill="#30293C"/>
<path d="M1050.31 233.883C1049.78 234.271 1049.45 234.7 1049.15 234.683C1048.83 234.665 1048.53 234.228 1048.22 233.972C1048.53 233.654 1048.79 233.193 1049.16 233.075C1049.38 233.007 1049.78 233.491 1050.31 233.883Z" fill="#30293C"/>
<path d="M1058.64 235.534C1058.02 235.876 1057.63 236.274 1057.32 236.213C1057.01 236.149 1056.79 235.646 1056.53 235.334C1056.84 235.08 1057.16 234.633 1057.48 234.63C1057.79 234.626 1058.1 235.088 1058.64 235.534Z" fill="#30293C"/>
<path opacity="0.1" d="M-312.594 510.949C-266.285 565.623 -189.217 581.88 -132.718 585.888C-103.647 587.95 -73.9773 587.688 -45.2846 587.434C-8.14203 587.108 30.2652 586.769 67.6613 591.483C104.163 596.081 192.897 614.29 228.461 683.818C248.92 723.815 248.566 776.194 227.41 839.498C225.418 845.454 223.281 851.413 221.096 857.359L222.351 858.065C224.57 852.029 226.741 845.978 228.764 839.927C250.042 776.265 250.368 723.535 229.737 683.198C193.864 613.065 104.57 594.733 67.8448 590.105C30.351 585.381 -8.10657 585.719 -45.2978 586.047C-73.9617 586.299 -103.601 586.562 -132.613 584.502C-188.836 580.515 -265.508 564.366 -311.493 510.065C-327.883 490.712 -339.497 467.446 -350.729 444.943C-355.413 435.56 -360.157 426.076 -365.279 416.804L-366.117 418.217C-361.166 427.23 -356.561 436.439 -352.011 445.551C-340.743 468.126 -329.091 491.47 -312.594 510.949Z" fill="url(#paint1_linear)"/>
<path opacity="0.1" d="M1231.81 187.35C1201.13 181.943 1170.76 170.291 1149.2 147.61C1139.46 137.365 1131.79 125.115 1127.83 111.647C1124.23 99.4058 1123.78 86.5923 1125.22 73.9898C1128.22 47.9018 1138.71 23.184 1146.78 -1.66148C1151.21 -15.3066 1155.19 -29.4778 1156.8 -43.7934H1149.7C1149.5 -42.1317 1149.27 -40.4728 1149 -38.8249C1144.71 -12.2372 1133.72 12.7721 1125.92 38.4575C1118.47 63.0045 1113.51 89.5062 1121.29 114.597C1129.88 142.261 1152.12 164.227 1178 177.395C1207.87 192.585 1242.17 197.465 1275.49 198.478C1312.24 199.596 1348.87 195.72 1385.5 193.471C1401.09 192.514 1417.04 191.917 1433.01 192.152V185.044C1365.95 184.111 1298.52 199.106 1231.81 187.35Z" fill="url(#paint2_linear)"/>
<path d="M276.297 460.932H264.422V449.366H256.789V460.932H244.915V468.366H256.789V479.931H264.422V468.366H276.297V460.932Z" fill="white"/>
<path d="M83.1736 142.155C83.1736 143.09 82.3954 143.848 81.4347 143.848C80.474 143.848 79.6958 143.09 79.6958 142.155C79.6958 141.219 80.474 140.461 81.4347 140.461C82.3954 140.461 83.1736 141.219 83.1736 142.155Z" fill="white"/>
<path d="M108.345 142.155C108.345 143.09 107.567 143.848 106.607 143.848C105.646 143.848 104.868 143.09 104.868 142.155C104.868 141.219 105.646 140.461 106.607 140.461C107.567 140.461 108.345 141.219 108.345 142.155Z" fill="#FF5148"/>
<path d="M133.518 142.155C133.518 143.09 132.74 143.848 131.779 143.848C130.818 143.848 130.04 143.09 130.04 142.155C130.04 141.219 130.818 140.461 131.779 140.461C132.74 140.461 133.518 141.219 133.518 142.155Z" fill="#FF5148"/>
<path d="M158.69 142.155C158.69 143.09 157.911 143.848 156.951 143.848C155.99 143.848 155.212 143.09 155.212 142.155C155.212 141.219 155.99 140.461 156.951 140.461C157.911 140.461 158.69 141.219 158.69 142.155Z" fill="white"/>
<path d="M183.861 142.155C183.861 143.09 183.083 143.848 182.122 143.848C181.162 143.848 180.383 143.09 180.383 142.155C180.383 141.219 181.162 140.461 182.122 140.461C183.083 140.461 183.861 141.219 183.861 142.155Z" fill="#FF5148"/>
<path d="M209.033 142.155C209.033 143.09 208.255 143.848 207.295 143.848C206.334 143.848 205.556 143.09 205.556 142.155C205.556 141.219 206.334 140.461 207.295 140.461C208.255 140.461 209.033 141.219 209.033 142.155Z" fill="#FF5148"/>
<path d="M234.205 142.155C234.205 143.09 233.427 143.848 232.466 143.848C231.506 143.848 230.728 143.09 230.728 142.155C230.728 141.219 231.506 140.461 232.466 140.461C233.427 140.461 234.205 141.219 234.205 142.155Z" fill="#FF5148"/>
<path d="M259.377 142.155C259.377 143.09 258.599 143.848 257.638 143.848C256.678 143.848 255.899 143.09 255.899 142.155C255.899 141.219 256.678 140.461 257.638 140.461C258.599 140.461 259.377 141.219 259.377 142.155Z" fill="#FF5148"/>
<path d="M284.549 142.155C284.549 143.09 283.771 143.848 282.81 143.848C281.85 143.848 281.071 143.09 281.071 142.155C281.071 141.219 281.85 140.461 282.81 140.461C283.771 140.461 284.549 141.219 284.549 142.155Z" fill="#FF5148"/>
<path d="M83.1736 158.634C83.1736 159.57 82.3954 160.328 81.4347 160.328C80.474 160.328 79.6958 159.57 79.6958 158.634C79.6958 157.698 80.474 156.94 81.4347 156.94C82.3954 156.94 83.1736 157.698 83.1736 158.634Z" fill="#FF5148"/>
<path d="M108.345 158.634C108.345 159.57 107.567 160.328 106.607 160.328C105.646 160.328 104.868 159.57 104.868 158.634C104.868 157.698 105.646 156.94 106.607 156.94C107.567 156.94 108.345 157.698 108.345 158.634Z" fill="#FF5148"/>
<path d="M133.518 158.634C133.518 159.57 132.74 160.328 131.779 160.328C130.818 160.328 130.04 159.57 130.04 158.634C130.04 157.698 130.818 156.94 131.779 156.94C132.74 156.94 133.518 157.698 133.518 158.634Z" fill="#FF5148"/>
<path d="M158.69 158.634C158.69 159.57 157.911 160.328 156.951 160.328C155.99 160.328 155.212 159.57 155.212 158.634C155.212 157.698 155.99 156.94 156.951 156.94C157.911 156.94 158.69 157.698 158.69 158.634Z" fill="#FF5148"/>
<path d="M183.861 158.634C183.861 159.57 183.083 160.328 182.122 160.328C181.162 160.328 180.383 159.57 180.383 158.634C180.383 157.698 181.162 156.94 182.122 156.94C183.083 156.94 183.861 157.698 183.861 158.634Z" fill="#FF5148"/>
<path d="M209.033 158.634C209.033 159.57 208.255 160.328 207.295 160.328C206.334 160.328 205.556 159.57 205.556 158.634C205.556 157.698 206.334 156.94 207.295 156.94C208.255 156.94 209.033 157.698 209.033 158.634Z" fill="white"/>
<path d="M234.205 158.634C234.205 159.57 233.427 160.328 232.466 160.328C231.506 160.328 230.728 159.57 230.728 158.634C230.728 157.698 231.506 156.94 232.466 156.94C233.427 156.94 234.205 157.698 234.205 158.634Z" fill="#FF5148"/>
<path d="M259.377 158.634C259.377 159.57 258.599 160.328 257.638 160.328C256.678 160.328 255.899 159.57 255.899 158.634C255.899 157.698 256.678 156.94 257.638 156.94C258.599 156.94 259.377 157.698 259.377 158.634Z" fill="#FF5148"/>
<path d="M284.549 158.634C284.549 159.57 283.771 160.328 282.81 160.328C281.85 160.328 281.071 159.57 281.071 158.634C281.071 157.698 281.85 156.94 282.81 156.94C283.771 156.94 284.549 157.698 284.549 158.634Z" fill="white"/>
<path d="M83.1736 175.114C83.1736 176.05 82.3954 176.808 81.4347 176.808C80.474 176.808 79.6958 176.05 79.6958 175.114C79.6958 174.178 80.474 173.42 81.4347 173.42C82.3954 173.42 83.1736 174.178 83.1736 175.114Z" fill="#FF5148"/>
<path d="M108.345 175.114C108.345 176.05 107.567 176.808 106.607 176.808C105.646 176.808 104.868 176.05 104.868 175.114C104.868 174.178 105.646 173.42 106.607 173.42C107.567 173.42 108.345 174.178 108.345 175.114Z" fill="white"/>
<path d="M133.518 175.114C133.518 176.05 132.74 176.808 131.779 176.808C130.818 176.808 130.04 176.05 130.04 175.114C130.04 174.178 130.818 173.42 131.779 173.42C132.74 173.42 133.518 174.178 133.518 175.114Z" fill="#FF5148"/>
<path d="M158.69 175.114C158.69 176.05 157.911 176.808 156.951 176.808C155.99 176.808 155.212 176.05 155.212 175.114C155.212 174.178 155.99 173.42 156.951 173.42C157.911 173.42 158.69 174.178 158.69 175.114Z" fill="#FF5148"/>
<path d="M183.861 175.114C183.861 176.05 183.083 176.808 182.122 176.808C181.162 176.808 180.383 176.05 180.383 175.114C180.383 174.178 181.162 173.42 182.122 173.42C183.083 173.42 183.861 174.178 183.861 175.114Z" fill="#FF5148"/>
<path d="M209.033 175.114C209.033 176.05 208.255 176.808 207.295 176.808C206.334 176.808 205.556 176.05 205.556 175.114C205.556 174.178 206.334 173.42 207.295 173.42C208.255 173.42 209.033 174.178 209.033 175.114Z" fill="#FF5148"/>
<path d="M234.205 175.114C234.205 176.05 233.427 176.808 232.466 176.808C231.506 176.808 230.728 176.05 230.728 175.114C230.728 174.178 231.506 173.42 232.466 173.42C233.427 173.42 234.205 174.178 234.205 175.114Z" fill="white"/>
<path d="M259.377 175.114C259.377 176.05 258.599 176.808 257.638 176.808C256.678 176.808 255.899 176.05 255.899 175.114C255.899 174.178 256.678 173.42 257.638 173.42C258.599 173.42 259.377 174.178 259.377 175.114Z" fill="#FF5148"/>
<path d="M284.549 175.114C284.549 176.05 283.771 176.808 282.81 176.808C281.85 176.808 281.071 176.05 281.071 175.114C281.071 174.178 281.85 173.42 282.81 173.42C283.771 173.42 284.549 174.178 284.549 175.114Z" fill="#FF5148"/>
<path d="M83.1736 191.594C83.1736 192.53 82.3954 193.288 81.4347 193.288C80.474 193.288 79.6958 192.53 79.6958 191.594C79.6958 190.658 80.474 189.9 81.4347 189.9C82.3954 189.9 83.1736 190.658 83.1736 191.594Z" fill="#FF5148"/>
<path d="M108.345 191.594C108.345 192.53 107.567 193.288 106.607 193.288C105.646 193.288 104.868 192.53 104.868 191.594C104.868 190.658 105.646 189.9 106.607 189.9C107.567 189.9 108.345 190.658 108.345 191.594Z" fill="#FF5148"/>
<path d="M133.518 191.594C133.518 192.53 132.74 193.288 131.779 193.288C130.818 193.288 130.04 192.53 130.04 191.594C130.04 190.658 130.818 189.9 131.779 189.9C132.74 189.9 133.518 190.658 133.518 191.594Z" fill="white"/>
<path d="M158.69 191.594C158.69 192.53 157.911 193.288 156.951 193.288C155.99 193.288 155.212 192.53 155.212 191.594C155.212 190.658 155.99 189.9 156.951 189.9C157.911 189.9 158.69 190.658 158.69 191.594Z" fill="#FF5148"/>
<path d="M183.861 191.594C183.861 192.53 183.083 193.288 182.122 193.288C181.162 193.288 180.383 192.53 180.383 191.594C180.383 190.658 181.162 189.9 182.122 189.9C183.083 189.9 183.861 190.658 183.861 191.594Z" fill="white"/>
<path d="M209.033 191.594C209.033 192.53 208.255 193.288 207.295 193.288C206.334 193.288 205.556 192.53 205.556 191.594C205.556 190.658 206.334 189.9 207.295 189.9C208.255 189.9 209.033 190.658 209.033 191.594Z" fill="#FF5148"/>
<path d="M234.205 191.594C234.205 192.53 233.427 193.288 232.466 193.288C231.506 193.288 230.728 192.53 230.728 191.594C230.728 190.658 231.506 189.9 232.466 189.9C233.427 189.9 234.205 190.658 234.205 191.594Z" fill="#FF5148"/>
<path d="M259.377 191.594C259.377 192.53 258.599 193.288 257.638 193.288C256.678 193.288 255.899 192.53 255.899 191.594C255.899 190.658 256.678 189.9 257.638 189.9C258.599 189.9 259.377 190.658 259.377 191.594Z" fill="#FF5148"/>
<path d="M284.549 191.594C284.549 192.53 283.771 193.288 282.81 193.288C281.85 193.288 281.071 192.53 281.071 191.594C281.071 190.658 281.85 189.9 282.81 189.9C283.771 189.9 284.549 190.658 284.549 191.594Z" fill="#FF5148"/>
<path d="M405.255 257.762C405.255 258.698 404.477 259.456 403.516 259.456C402.556 259.456 401.777 258.698 401.777 257.762C401.777 256.826 402.556 256.068 403.516 256.068C404.477 256.068 405.255 256.826 405.255 257.762Z" fill="#FF5148"/>
<path d="M121.174 50.3787C121.174 51.3129 120.396 52.0723 119.435 52.0723C118.475 52.0723 117.696 51.3129 117.696 50.3787C117.696 49.443 118.475 48.6851 119.435 48.6851C120.396 48.6851 121.174 49.443 121.174 50.3787Z" fill="#FF5148"/>
<path d="M334.055 33.0308C334.055 33.9665 333.277 34.7246 332.317 34.7246C331.356 34.7246 330.578 33.9665 330.578 33.0308C330.578 32.095 331.356 31.3369 332.317 31.3369C333.277 31.3369 334.055 32.095 334.055 33.0308Z" fill="#FF5148"/>
<path d="M131.779 429.996C131.779 430.932 131 431.69 130.04 431.69C129.079 431.69 128.301 430.932 128.301 429.996C128.301 429.06 129.079 428.302 130.04 428.302C131 428.302 131.779 429.06 131.779 429.996Z" fill="#FF5148"/>
<path d="M1002.87 311.77C1002.87 312.706 1002.1 313.464 1001.13 313.464C1000.17 313.464 999.397 312.706 999.397 311.77C999.397 310.834 1000.17 310.076 1001.13 310.076C1002.1 310.076 1002.87 310.834 1002.87 311.77Z" fill="#FF5148"/>
<path d="M83.1736 208.073C83.1736 209.009 82.3954 209.767 81.4347 209.767C80.474 209.767 79.6958 209.009 79.6958 208.073C79.6958 207.138 80.474 206.38 81.4347 206.38C82.3954 206.38 83.1736 207.138 83.1736 208.073Z" fill="#FF5148"/>
<path d="M108.345 208.073C108.345 209.009 107.567 209.767 106.607 209.767C105.646 209.767 104.868 209.009 104.868 208.073C104.868 207.138 105.646 206.38 106.607 206.38C107.567 206.38 108.345 207.138 108.345 208.073Z" fill="#FF5148"/>
<path d="M133.518 208.073C133.518 209.009 132.74 209.767 131.779 209.767C130.818 209.767 130.04 209.009 130.04 208.073C130.04 207.138 130.818 206.38 131.779 206.38C132.74 206.38 133.518 207.138 133.518 208.073Z" fill="#FF5148"/>
<path d="M158.69 208.073C158.69 209.009 157.911 209.767 156.951 209.767C155.99 209.767 155.212 209.009 155.212 208.073C155.212 207.138 155.99 206.38 156.951 206.38C157.911 206.38 158.69 207.138 158.69 208.073Z" fill="#FF5148"/>
<path d="M183.861 208.073C183.861 209.009 183.083 209.767 182.122 209.767C181.162 209.767 180.383 209.009 180.383 208.073C180.383 207.138 181.162 206.38 182.122 206.38C183.083 206.38 183.861 207.138 183.861 208.073Z" fill="#FF5148"/>
<path d="M209.033 208.073C209.033 209.009 208.255 209.767 207.295 209.767C206.334 209.767 205.556 209.009 205.556 208.073C205.556 207.138 206.334 206.38 207.295 206.38C208.255 206.38 209.033 207.138 209.033 208.073Z" fill="#FF5148"/>
<path d="M234.205 208.073C234.205 209.009 233.427 209.767 232.466 209.767C231.506 209.767 230.728 209.009 230.728 208.073C230.728 207.138 231.506 206.38 232.466 206.38C233.427 206.38 234.205 207.138 234.205 208.073Z" fill="#FF5148"/>
<path d="M259.377 208.073C259.377 209.009 258.599 209.767 257.638 209.767C256.678 209.767 255.899 209.009 255.899 208.073C255.899 207.138 256.678 206.38 257.638 206.38C258.599 206.38 259.377 207.138 259.377 208.073Z" fill="white"/>
<path d="M853.581 250.726C853.581 251.662 852.803 252.42 851.842 252.42C850.881 252.42 850.104 251.662 850.104 250.726C850.104 249.791 850.881 249.033 851.842 249.033C852.803 249.033 853.581 249.791 853.581 250.726Z" fill="white"/>
<path d="M284.549 208.073C284.549 209.009 283.771 209.767 282.81 209.767C281.85 209.767 281.071 209.009 281.071 208.073C281.071 207.138 281.85 206.38 282.81 206.38C283.771 206.38 284.549 207.138 284.549 208.073Z" fill="white"/>
<path d="M480.74 531.106C480.74 532.041 479.961 532.799 479.001 532.799C478.04 532.799 477.262 532.041 477.262 531.106C477.262 530.17 478.04 529.411 479.001 529.411C479.961 529.411 480.74 530.17 480.74 531.106Z" fill="white"/>
<path d="M681.006 416.283C681.006 417.219 680.227 417.977 679.267 417.977C678.306 417.977 677.529 417.219 677.529 416.283C677.529 415.347 678.306 414.589 679.267 414.589C680.227 414.589 681.006 415.347 681.006 416.283Z" fill="white"/>
<path d="M860.702 628.065C860.702 629.001 859.924 629.76 858.963 629.76C858.002 629.76 857.226 629.001 857.226 628.065C857.226 627.13 858.002 626.372 858.963 626.372C859.924 626.372 860.702 627.13 860.702 628.065Z" fill="white"/>
<path d="M591.844 107.126C591.844 108.061 591.066 108.819 590.106 108.819C589.145 108.819 588.368 108.061 588.368 107.126C588.368 106.19 589.145 105.432 590.106 105.432C591.066 105.432 591.844 106.19 591.844 107.126Z" fill="white"/>
<path d="M801.499 431.689C801.499 432.625 800.72 433.385 799.76 433.385C798.8 433.385 798.021 432.625 798.021 431.689C798.021 430.754 798.8 429.996 799.76 429.996C800.72 429.996 801.499 430.754 801.499 431.689Z" fill="white"/>
<path d="M826.671 431.689C826.671 432.625 825.893 433.385 824.932 433.385C823.972 433.385 823.193 432.625 823.193 431.689C823.193 430.754 823.972 429.996 824.932 429.996C825.893 429.996 826.671 430.754 826.671 431.689Z" fill="#FF5148"/>
<path d="M851.843 431.689C851.843 432.625 851.064 433.385 850.104 433.385C849.143 433.385 848.366 432.625 848.366 431.689C848.366 430.754 849.143 429.996 850.104 429.996C851.064 429.996 851.843 430.754 851.843 431.689Z" fill="#FF5148"/>
<path d="M877.015 431.689C877.015 432.625 876.236 433.385 875.276 433.385C874.315 433.385 873.538 432.625 873.538 431.689C873.538 430.754 874.315 429.996 875.276 429.996C876.236 429.996 877.015 430.754 877.015 431.689Z" fill="white"/>
<path d="M902.187 431.689C902.187 432.625 901.408 433.385 900.447 433.385C899.486 433.385 898.709 432.625 898.709 431.689C898.709 430.754 899.486 429.996 900.447 429.996C901.408 429.996 902.187 430.754 902.187 431.689Z" fill="#FF5148"/>
<path d="M927.359 431.689C927.359 432.625 926.579 433.385 925.618 433.385C924.658 433.385 923.881 432.625 923.881 431.689C923.881 430.754 924.658 429.996 925.618 429.996C926.579 429.996 927.359 430.754 927.359 431.689Z" fill="#FF5148"/>
<path d="M952.531 431.689C952.531 432.625 951.752 433.385 950.792 433.385C949.831 433.385 949.053 432.625 949.053 431.689C949.053 430.754 949.831 429.996 950.792 429.996C951.752 429.996 952.531 430.754 952.531 431.689Z" fill="#FF5148"/>
<path d="M977.702 431.689C977.702 432.625 976.924 433.385 975.963 433.385C975.002 433.385 974.226 432.625 974.226 431.689C974.226 430.754 975.002 429.996 975.963 429.996C976.924 429.996 977.702 430.754 977.702 431.689Z" fill="#FF5148"/>
<path d="M1002.87 431.689C1002.87 432.625 1002.1 433.385 1001.13 433.385C1000.17 433.385 999.397 432.625 999.397 431.689C999.397 430.754 1000.17 429.996 1001.13 429.996C1002.1 429.996 1002.87 430.754 1002.87 431.689Z" fill="#FF5148"/>
<path d="M801.499 448.169C801.499 449.105 800.72 449.863 799.76 449.863C798.8 449.863 798.021 449.105 798.021 448.169C798.021 447.234 798.8 446.476 799.76 446.476C800.72 446.476 801.499 447.234 801.499 448.169Z" fill="#FF5148"/>
<path d="M826.671 448.169C826.671 449.105 825.893 449.863 824.932 449.863C823.972 449.863 823.193 449.105 823.193 448.169C823.193 447.234 823.972 446.476 824.932 446.476C825.893 446.476 826.671 447.234 826.671 448.169Z" fill="#FF5148"/>
<path d="M851.843 448.169C851.843 449.105 851.064 449.863 850.104 449.863C849.143 449.863 848.366 449.105 848.366 448.169C848.366 447.234 849.143 446.476 850.104 446.476C851.064 446.476 851.843 447.234 851.843 448.169Z" fill="#FF5148"/>
<path d="M877.015 448.169C877.015 449.105 876.236 449.863 875.276 449.863C874.315 449.863 873.538 449.105 873.538 448.169C873.538 447.234 874.315 446.476 875.276 446.476C876.236 446.476 877.015 447.234 877.015 448.169Z" fill="#FF5148"/>
<path d="M902.187 448.169C902.187 449.105 901.408 449.863 900.447 449.863C899.486 449.863 898.709 449.105 898.709 448.169C898.709 447.234 899.486 446.476 900.447 446.476C901.408 446.476 902.187 447.234 902.187 448.169Z" fill="#FF5148"/>
<path d="M927.359 448.169C927.359 449.105 926.579 449.863 925.618 449.863C924.658 449.863 923.881 449.105 923.881 448.169C923.881 447.234 924.658 446.476 925.618 446.476C926.579 446.476 927.359 447.234 927.359 448.169Z" fill="white"/>
<path d="M952.531 448.169C952.531 449.105 951.752 449.863 950.792 449.863C949.831 449.863 949.053 449.105 949.053 448.169C949.053 447.234 949.831 446.476 950.792 446.476C951.752 446.476 952.531 447.234 952.531 448.169Z" fill="#FF5148"/>
<path d="M977.702 448.169C977.702 449.105 976.924 449.863 975.963 449.863C975.002 449.863 974.226 449.105 974.226 448.169C974.226 447.234 975.002 446.476 975.963 446.476C976.924 446.476 977.702 447.234 977.702 448.169Z" fill="#FF5148"/>
<path d="M1002.87 448.169C1002.87 449.105 1002.1 449.863 1001.13 449.863C1000.17 449.863 999.397 449.105 999.397 448.169C999.397 447.234 1000.17 446.476 1001.13 446.476C1002.1 446.476 1002.87 447.234 1002.87 448.169Z" fill="white"/>
<path d="M801.499 464.649C801.499 465.585 800.72 466.342 799.76 466.342C798.8 466.342 798.021 465.585 798.021 464.649C798.021 463.714 798.8 462.956 799.76 462.956C800.72 462.956 801.499 463.714 801.499 464.649Z" fill="#FF5148"/>
<path d="M826.671 464.649C826.671 465.585 825.893 466.342 824.932 466.342C823.972 466.342 823.193 465.585 823.193 464.649C823.193 463.714 823.972 462.956 824.932 462.956C825.893 462.956 826.671 463.714 826.671 464.649Z" fill="white"/>
<path d="M851.843 464.649C851.843 465.585 851.064 466.342 850.104 466.342C849.143 466.342 848.366 465.585 848.366 464.649C848.366 463.714 849.143 462.956 850.104 462.956C851.064 462.956 851.843 463.714 851.843 464.649Z" fill="#FF5148"/>
<path d="M877.015 464.649C877.015 465.585 876.236 466.342 875.276 466.342C874.315 466.342 873.538 465.585 873.538 464.649C873.538 463.714 874.315 462.956 875.276 462.956C876.236 462.956 877.015 463.714 877.015 464.649Z" fill="#FF5148"/>
<path d="M902.187 464.649C902.187 465.585 901.408 466.342 900.447 466.342C899.486 466.342 898.709 465.585 898.709 464.649C898.709 463.714 899.486 462.956 900.447 462.956C901.408 462.956 902.187 463.714 902.187 464.649Z" fill="#FF5148"/>
<path d="M927.359 464.649C927.359 465.585 926.579 466.342 925.618 466.342C924.658 466.342 923.881 465.585 923.881 464.649C923.881 463.714 924.658 462.956 925.618 462.956C926.579 462.956 927.359 463.714 927.359 464.649Z" fill="#FF5148"/>
<path d="M952.531 464.649C952.531 465.585 951.752 466.342 950.792 466.342C949.831 466.342 949.053 465.585 949.053 464.649C949.053 463.714 949.831 462.956 950.792 462.956C951.752 462.956 952.531 463.714 952.531 464.649Z" fill="white"/>
<path d="M977.702 464.649C977.702 465.585 976.924 466.342 975.963 466.342C975.002 466.342 974.226 465.585 974.226 464.649C974.226 463.714 975.002 462.956 975.963 462.956C976.924 462.956 977.702 463.714 977.702 464.649Z" fill="#FF5148"/>
<path d="M1002.87 464.649C1002.87 465.585 1002.1 466.342 1001.13 466.342C1000.17 466.342 999.397 465.585 999.397 464.649C999.397 463.714 1000.17 462.956 1001.13 462.956C1002.1 462.956 1002.87 463.714 1002.87 464.649Z" fill="#FF5148"/>
<path d="M801.499 481.129C801.499 482.065 800.72 482.823 799.76 482.823C798.8 482.823 798.021 482.065 798.021 481.129C798.021 480.194 798.8 479.435 799.76 479.435C800.72 479.435 801.499 480.194 801.499 481.129Z" fill="#FF5148"/>
<path d="M826.671 481.129C826.671 482.065 825.893 482.823 824.932 482.823C823.972 482.823 823.193 482.065 823.193 481.129C823.193 480.194 823.972 479.435 824.932 479.435C825.893 479.435 826.671 480.194 826.671 481.129Z" fill="#FF5148"/>
<path d="M851.843 481.129C851.843 482.065 851.064 482.823 850.104 482.823C849.143 482.823 848.366 482.065 848.366 481.129C848.366 480.194 849.143 479.435 850.104 479.435C851.064 479.435 851.843 480.194 851.843 481.129Z" fill="white"/>
<path d="M877.015 481.129C877.015 482.065 876.236 482.823 875.276 482.823C874.315 482.823 873.538 482.065 873.538 481.129C873.538 480.194 874.315 479.435 875.276 479.435C876.236 479.435 877.015 480.194 877.015 481.129Z" fill="#FF5148"/>
<path d="M902.187 481.129C902.187 482.065 901.408 482.823 900.447 482.823C899.486 482.823 898.709 482.065 898.709 481.129C898.709 480.194 899.486 479.435 900.447 479.435C901.408 479.435 902.187 480.194 902.187 481.129Z" fill="white"/>
<path d="M927.359 481.129C927.359 482.065 926.579 482.823 925.618 482.823C924.658 482.823 923.881 482.065 923.881 481.129C923.881 480.194 924.658 479.435 925.618 479.435C926.579 479.435 927.359 480.194 927.359 481.129Z" fill="#FF5148"/>
<path d="M952.531 481.129C952.531 482.065 951.752 482.823 950.792 482.823C949.831 482.823 949.053 482.065 949.053 481.129C949.053 480.194 949.831 479.435 950.792 479.435C951.752 479.435 952.531 480.194 952.531 481.129Z" fill="#FF5148"/>
<path d="M977.702 481.129C977.702 482.065 976.924 482.823 975.963 482.823C975.002 482.823 974.226 482.065 974.226 481.129C974.226 480.194 975.002 479.435 975.963 479.435C976.924 479.435 977.702 480.194 977.702 481.129Z" fill="#FF5148"/>
<path d="M1002.87 481.129C1002.87 482.065 1002.1 482.823 1001.13 482.823C1000.17 482.823 999.397 482.065 999.397 481.129C999.397 480.194 1000.17 479.435 1001.13 479.435C1002.1 479.435 1002.87 480.194 1002.87 481.129Z" fill="#FF5148"/>
<path d="M801.499 497.609C801.499 498.545 800.72 499.303 799.76 499.303C798.8 499.303 798.021 498.545 798.021 497.609C798.021 496.674 798.8 495.914 799.76 495.914C800.72 495.914 801.499 496.674 801.499 497.609Z" fill="#FF5148"/>
<path d="M826.671 497.609C826.671 498.545 825.893 499.303 824.932 499.303C823.972 499.303 823.193 498.545 823.193 497.609C823.193 496.674 823.972 495.914 824.932 495.914C825.893 495.914 826.671 496.674 826.671 497.609Z" fill="#FF5148"/>
<path d="M851.843 497.609C851.843 498.545 851.064 499.303 850.104 499.303C849.143 499.303 848.366 498.545 848.366 497.609C848.366 496.674 849.143 495.914 850.104 495.914C851.064 495.914 851.843 496.674 851.843 497.609Z" fill="#FF5148"/>
<path d="M877.015 497.609C877.015 498.545 876.236 499.303 875.276 499.303C874.315 499.303 873.538 498.545 873.538 497.609C873.538 496.674 874.315 495.914 875.276 495.914C876.236 495.914 877.015 496.674 877.015 497.609Z" fill="#FF5148"/>
<path d="M902.187 497.609C902.187 498.545 901.408 499.303 900.447 499.303C899.486 499.303 898.709 498.545 898.709 497.609C898.709 496.674 899.486 495.914 900.447 495.914C901.408 495.914 902.187 496.674 902.187 497.609Z" fill="#FF5148"/>
<path d="M927.359 497.609C927.359 498.545 926.579 499.303 925.618 499.303C924.658 499.303 923.881 498.545 923.881 497.609C923.881 496.674 924.658 495.914 925.618 495.914C926.579 495.914 927.359 496.674 927.359 497.609Z" fill="#FF5148"/>
<path d="M952.531 497.609C952.531 498.545 951.752 499.303 950.792 499.303C949.831 499.303 949.053 498.545 949.053 497.609C949.053 496.674 949.831 495.914 950.792 495.914C951.752 495.914 952.531 496.674 952.531 497.609Z" fill="#FF5148"/>
<path d="M977.702 497.609C977.702 498.545 976.924 499.303 975.963 499.303C975.002 499.303 974.226 498.545 974.226 497.609C974.226 496.674 975.002 495.914 975.963 495.914C976.924 495.914 977.702 496.674 977.702 497.609Z" fill="white"/>
<path d="M1002.87 497.609C1002.87 498.545 1002.1 499.303 1001.13 499.303C1000.17 499.303 999.397 498.545 999.397 497.609C999.397 496.674 1000.17 495.914 1001.13 495.914C1002.1 495.914 1002.87 496.674 1002.87 497.609Z" fill="white"/>
<path d="M332.316 462.956C332.316 501.53 300.211 532.8 260.606 532.8C221.002 532.8 188.896 501.53 188.896 462.956C188.896 424.382 221.002 393.11 260.606 393.11C300.211 393.11 332.316 424.382 332.316 462.956Z" stroke="white" stroke-width="0.333333" stroke-miterlimit="10"/>
<path d="M207.428 232.507L197.342 222.693L171.394 247.943L145.446 222.693L135.361 232.507L171.394 267.57L207.428 232.507Z" stroke="url(#paint3_linear)" stroke-width="0.9" stroke-miterlimit="10"/>
<g opacity="0.9375">
<g opacity="0.9375">
<path opacity="0.9375" d="M171.394 268.076L145.446 242.827L135.361 252.64L171.394 287.705L207.428 252.64L197.342 242.827L171.394 268.076Z" stroke="url(#paint4_linear)" stroke-width="0.9" stroke-miterlimit="10"/>
</g>
</g>
<g opacity="0.875">
<g opacity="0.875">
<path opacity="0.875" d="M171.394 288.209L145.446 262.96L135.361 272.774L171.394 307.838L207.428 272.774L197.342 262.96L171.394 288.209Z" stroke="url(#paint5_linear)" stroke-width="0.9" stroke-miterlimit="10"/>
</g>
</g>
<g opacity="0.8125">
<g opacity="0.8125">
<path opacity="0.8125" d="M171.394 308.343L145.446 283.094L135.361 292.907L171.394 327.972L207.428 292.907L197.342 283.094L171.394 308.343Z" stroke="url(#paint6_linear)" stroke-width="0.9" stroke-miterlimit="10"/>
</g>
</g>
<g opacity="0.75">
<g opacity="0.75">
<path opacity="0.75" d="M171.394 328.476L145.446 303.226L135.361 313.041L171.394 348.105L207.428 313.041L197.342 303.226L171.394 328.476Z" stroke="url(#paint7_linear)" stroke-width="0.9" stroke-miterlimit="10"/>
</g>
</g>
<g opacity="0.6875">
<g opacity="0.6875">
<path opacity="0.6875" d="M171.394 348.61L145.446 323.36L135.361 333.175L171.394 368.239L207.428 333.175L197.342 323.36L171.394 348.61Z" stroke="url(#paint8_linear)" stroke-width="0.9" stroke-miterlimit="10"/>
</g>
</g>
<g opacity="0.625">
<g opacity="0.625">
<path opacity="0.625" d="M171.394 368.743L145.446 343.495L135.361 353.308L171.394 388.373L207.428 353.308L197.342 343.495L171.394 368.743Z" stroke="url(#paint9_linear)" stroke-width="0.9" stroke-miterlimit="10"/>
</g>
</g>
<g opacity="0.5625">
<g opacity="0.5625">
<path opacity="0.5625" d="M171.394 388.877L145.446 363.628L135.361 373.441L171.394 408.506L207.428 373.441L197.342 363.628L171.394 388.877Z" stroke="url(#paint10_linear)" stroke-width="0.9" stroke-miterlimit="10"/>
</g>
</g>
<g opacity="0.5">
<g opacity="0.5">
<path opacity="0.5" d="M171.394 409.011L145.446 383.762L135.361 393.575L171.394 428.64L207.428 393.575L197.342 383.762L171.394 409.011Z" stroke="url(#paint11_linear)" stroke-width="0.9" stroke-miterlimit="10"/>
</g>
</g>
<g opacity="0.4375">
<g opacity="0.4375">
<path opacity="0.4375" d="M171.394 429.145L145.446 403.895L135.361 413.709L171.394 448.773L207.428 413.709L197.342 403.895L171.394 429.145Z" stroke="url(#paint12_linear)" stroke-width="0.9" stroke-miterlimit="10"/>
</g>
</g>
<g opacity="0.375">
<g opacity="0.375">
<path opacity="0.375" d="M171.394 449.278L145.446 424.029L135.361 433.842L171.394 468.907L207.428 433.842L197.342 424.029L171.394 449.278Z" stroke="url(#paint13_linear)" stroke-width="0.9" stroke-miterlimit="10"/>
</g>
</g>
<g opacity="0.3125">
<g opacity="0.3125">
<path opacity="0.3125" d="M171.394 469.411L145.446 444.163L135.361 453.976L171.394 489.041L207.428 453.976L197.342 444.163L171.394 469.411Z" stroke="url(#paint14_linear)" stroke-width="0.9" stroke-miterlimit="10"/>
</g>
</g>
<g opacity="0.25">
<g opacity="0.25">
<path opacity="0.25" d="M171.394 489.545L145.446 464.296L135.361 474.109L171.394 509.174L207.428 474.109L197.342 464.296L171.394 489.545Z" stroke="url(#paint15_linear)" stroke-width="0.9" stroke-miterlimit="10"/>
</g>
</g>
<g opacity="0.1875">
<g opacity="0.1875">
<path opacity="0.1875" d="M171.394 509.679L145.446 484.429L135.361 494.243L171.394 529.308L207.428 494.243L197.342 484.429L171.394 509.679Z" stroke="url(#paint16_linear)" stroke-width="0.9" stroke-miterlimit="10"/>
</g>
</g>
<g opacity="0.125">
<g opacity="0.125">
<path opacity="0.125" d="M171.394 529.812L145.446 504.562L135.361 514.376L171.394 549.441L207.428 514.376L197.342 504.562L171.394 529.812Z" stroke="url(#paint17_linear)" stroke-width="0.9" stroke-miterlimit="10"/>
</g>
</g>
<g opacity="0.0625">
<g opacity="0.0625">
<path opacity="0.0625" d="M171.394 549.946L145.446 524.697L135.361 534.51L171.394 569.575L207.428 534.51L197.342 524.697L171.394 549.946Z" stroke="url(#paint18_linear)" stroke-width="0.9" stroke-miterlimit="10"/>
</g>
</g>
<path d="M1245.36 467.227L1252.98 474.641L1272.58 455.567L1292.19 474.641L1299.8 467.227L1272.58 440.738L1245.36 467.227Z" stroke="url(#paint19_linear)" stroke-width="0.68" stroke-miterlimit="10"/>
<g opacity="0.9375">
<g opacity="0.9375">
<path opacity="0.9375" d="M1272.58 440.356L1292.18 459.431L1299.8 452.016L1272.58 425.528L1245.36 452.016L1252.98 459.431L1272.58 440.356Z" stroke="url(#paint20_linear)" stroke-width="0.68" stroke-miterlimit="10"/>
</g>
</g>
<g opacity="0.875">
<g opacity="0.875">
<path opacity="0.875" d="M1272.58 425.147L1292.18 444.221L1299.8 436.807L1272.58 410.317L1245.36 436.807L1252.98 444.221L1272.58 425.147Z" stroke="url(#paint21_linear)" stroke-width="0.68" stroke-miterlimit="10"/>
</g>
</g>
<g opacity="0.8125">
<g opacity="0.8125">
<path opacity="0.8125" d="M1272.58 409.937L1292.18 429.011L1299.8 421.597L1272.58 395.108L1245.36 421.597L1252.98 429.011L1272.58 409.937Z" stroke="url(#paint22_linear)" stroke-width="0.68" stroke-miterlimit="10"/>
</g>
</g>
<g opacity="0.75">
<g opacity="0.75">
<path opacity="0.75" d="M1272.58 394.727L1292.18 413.802L1299.8 406.387L1272.58 379.899L1245.36 406.387L1252.98 413.802L1272.58 394.727Z" stroke="url(#paint23_linear)" stroke-width="0.68" stroke-miterlimit="10"/>
</g>
</g>
<g opacity="0.6875">
<g opacity="0.6875">
<path opacity="0.6875" d="M1272.58 379.517L1292.18 398.591L1299.8 391.177L1272.58 364.688L1245.36 391.177L1252.98 398.591L1272.58 379.517Z" stroke="url(#paint24_linear)" stroke-width="0.68" stroke-miterlimit="10"/>
</g>
</g>
<g opacity="0.625">
<g opacity="0.625">
<path opacity="0.625" d="M1272.58 364.308L1292.18 383.382L1299.8 375.968L1272.58 349.479L1245.36 375.968L1252.98 383.382L1272.58 364.308Z" stroke="url(#paint25_linear)" stroke-width="0.68" stroke-miterlimit="10"/>
</g>
</g>
<g opacity="0.5625">
<g opacity="0.5625">
<path opacity="0.5625" d="M1272.58 349.098L1292.18 368.172L1299.8 360.757L1272.58 334.269L1245.36 360.757L1252.98 368.172L1272.58 349.098Z" stroke="url(#paint26_linear)" stroke-width="0.68" stroke-miterlimit="10"/>
</g>
</g>
<g opacity="0.5">
<g opacity="0.5">
<path opacity="0.5" d="M1272.58 333.888L1292.18 352.962L1299.8 345.548L1272.58 319.06L1245.36 345.548L1252.98 352.962L1272.58 333.888Z" stroke="url(#paint27_linear)" stroke-width="0.68" stroke-miterlimit="10"/>
</g>
</g>
<g opacity="0.4375">
<g opacity="0.4375">
<path opacity="0.4375" d="M1272.58 318.678L1292.18 337.752L1299.8 330.338L1272.58 303.849L1245.36 330.338L1252.98 337.752L1272.58 318.678Z" stroke="url(#paint28_linear)" stroke-width="0.68" stroke-miterlimit="10"/>
</g>
</g>
<g opacity="0.375">
<g opacity="0.375">
<path opacity="0.375" d="M1272.58 303.469L1292.18 322.543L1299.8 315.129L1272.58 288.64L1245.36 315.129L1252.98 322.543L1272.58 303.469Z" stroke="url(#paint29_linear)" stroke-width="0.68" stroke-miterlimit="10"/>
</g>
</g>
<g opacity="0.3125">
<g opacity="0.3125">
<path opacity="0.3125" d="M1272.58 288.258L1292.18 307.332L1299.8 299.918L1272.58 273.43L1245.36 299.918L1252.98 307.332L1272.58 288.258Z" stroke="url(#paint30_linear)" stroke-width="0.68" stroke-miterlimit="10"/>
</g>
</g>
<g opacity="0.25">
<g opacity="0.25">
<path opacity="0.25" d="M1272.58 273.049L1292.18 292.123L1299.8 284.709L1272.58 258.22L1245.36 284.709L1252.98 292.123L1272.58 273.049Z" stroke="url(#paint31_linear)" stroke-width="0.68" stroke-miterlimit="10"/>
</g>
</g>
<g opacity="0.1875">
<g opacity="0.1875">
<path opacity="0.1875" d="M1272.58 257.84L1292.18 276.914L1299.8 269.5L1272.58 243.01L1245.36 269.5L1252.98 276.914L1272.58 257.84Z" stroke="url(#paint32_linear)" stroke-width="0.68" stroke-miterlimit="10"/>
</g>
</g>
<g opacity="0.125">
<g opacity="0.125">
<path opacity="0.125" d="M1272.58 242.629L1292.18 261.705L1299.8 254.289L1272.58 227.801L1245.36 254.289L1252.98 261.705L1272.58 242.629Z" stroke="url(#paint33_linear)" stroke-width="0.68" stroke-miterlimit="10"/>
</g>
</g>
<g opacity="0.0625">
<g opacity="0.0625">
<path opacity="0.0625" d="M1272.58 227.419L1292.18 246.493L1299.8 239.079L1272.58 212.59L1245.36 239.079L1252.98 246.493L1272.58 227.419Z" stroke="url(#paint34_linear)" stroke-width="0.68" stroke-miterlimit="10"/>
</g>
</g>
<path opacity="0.1" d="M1349.46 207.713C1342.89 208.339 1336.28 208.996 1329.64 209.655C1253.42 217.231 1174.61 225.066 1107.87 191.094C1068.03 170.822 1037.19 137.421 1007.35 105.12C982.683 78.4063 957.171 50.7829 926.518 30.3591C865.217 -10.4845 786.572 -19.8316 724.906 -23.4133C709.266 -24.3212 693.302 -24.9639 677.864 -25.5845C623.873 -27.7585 568.041 -30.0046 515.281 -44.0315C512.885 -44.6687 510.539 -45.3267 508.223 -46H503.361C507.105 -44.8506 510.945 -43.7455 514.905 -42.6918C567.82 -28.6233 623.733 -26.3744 677.806 -24.1976C693.238 -23.5771 709.193 -22.9343 724.821 -22.0278C786.304 -18.4572 864.701 -9.14624 925.713 31.5044C956.226 51.8352 981.68 79.3961 1006.29 106.049C1036.21 138.441 1067.15 171.937 1107.21 192.326C1174.33 226.488 1253.36 218.634 1329.78 211.037C1336.42 210.377 1343.03 209.72 1349.6 209.094C1379.75 206.222 1412.88 204.338 1445.68 206.655V205.261C1412.82 202.949 1379.65 204.837 1349.46 207.713Z" fill="url(#paint35_linear)"/>
</g>
<defs>
<linearGradient id="paint0_linear" x1="565.009" y1="858.211" x2="-196.436" y2="498.399" gradientUnits="userSpaceOnUse">
<stop stop-color="#446EFF"/>
<stop offset="0.423918" stop-color="#8B40FF"/>
<stop offset="1" stop-color="#FF6669"/>
</linearGradient>
<linearGradient id="paint1_linear" x1="367.097" y1="807.02" x2="-423.07" y2="426.548" gradientUnits="userSpaceOnUse">
<stop stop-color="#446EFF"/>
<stop offset="0.423918" stop-color="#8B40FF"/>
<stop offset="1" stop-color="#FF6669"/>
</linearGradient>
<linearGradient id="paint2_linear" x1="1475.55" y1="42.8027" x2="1096.25" y2="53.314" gradientUnits="userSpaceOnUse">
<stop stop-color="#446EFF"/>
<stop offset="0.423918" stop-color="#8B40FF"/>
<stop offset="1" stop-color="#FF6669"/>
</linearGradient>
<linearGradient id="paint3_linear" x1="181.69" y1="273.619" x2="180.974" y2="219.659" gradientUnits="userSpaceOnUse">
<stop stop-color="#446EFF"/>
<stop offset="0.423918" stop-color="#8B40FF"/>
<stop offset="1" stop-color="#FF6669"/>
</linearGradient>
<linearGradient id="paint4_linear" x1="181.69" y1="293.753" x2="180.974" y2="239.793" gradientUnits="userSpaceOnUse">
<stop stop-color="#446EFF"/>
<stop offset="0.423918" stop-color="#8B40FF"/>
<stop offset="1" stop-color="#FF6669"/>
</linearGradient>
<linearGradient id="paint5_linear" x1="181.69" y1="313.887" x2="180.974" y2="259.926" gradientUnits="userSpaceOnUse">
<stop stop-color="#446EFF"/>
<stop offset="0.423918" stop-color="#8B40FF"/>
<stop offset="1" stop-color="#FF6669"/>
</linearGradient>
<linearGradient id="paint6_linear" x1="181.69" y1="334.021" x2="180.974" y2="280.06" gradientUnits="userSpaceOnUse">
<stop stop-color="#446EFF"/>
<stop offset="0.423918" stop-color="#8B40FF"/>
<stop offset="1" stop-color="#FF6669"/>
</linearGradient>
<linearGradient id="paint7_linear" x1="181.69" y1="354.154" x2="180.974" y2="300.192" gradientUnits="userSpaceOnUse">
<stop stop-color="#446EFF"/>
<stop offset="0.423918" stop-color="#8B40FF"/>
<stop offset="1" stop-color="#FF6669"/>
</linearGradient>
<linearGradient id="paint8_linear" x1="181.69" y1="374.288" x2="180.974" y2="320.326" gradientUnits="userSpaceOnUse">
<stop stop-color="#446EFF"/>
<stop offset="0.423918" stop-color="#8B40FF"/>
<stop offset="1" stop-color="#FF6669"/>
</linearGradient>
<linearGradient id="paint9_linear" x1="181.69" y1="394.421" x2="180.974" y2="340.461" gradientUnits="userSpaceOnUse">
<stop stop-color="#446EFF"/>
<stop offset="0.423918" stop-color="#8B40FF"/>
<stop offset="1" stop-color="#FF6669"/>
</linearGradient>
<linearGradient id="paint10_linear" x1="181.69" y1="414.555" x2="180.974" y2="360.594" gradientUnits="userSpaceOnUse">
<stop stop-color="#446EFF"/>
<stop offset="0.423918" stop-color="#8B40FF"/>
<stop offset="1" stop-color="#FF6669"/>
</linearGradient>
<linearGradient id="paint11_linear" x1="181.69" y1="434.688" x2="180.974" y2="380.728" gradientUnits="userSpaceOnUse">
<stop stop-color="#446EFF"/>
<stop offset="0.423918" stop-color="#8B40FF"/>
<stop offset="1" stop-color="#FF6669"/>
</linearGradient>
<linearGradient id="paint12_linear" x1="181.69" y1="454.822" x2="180.974" y2="400.86" gradientUnits="userSpaceOnUse">
<stop stop-color="#446EFF"/>
<stop offset="0.423918" stop-color="#8B40FF"/>
<stop offset="1" stop-color="#FF6669"/>
</linearGradient>
<linearGradient id="paint13_linear" x1="181.69" y1="474.956" x2="180.974" y2="420.995" gradientUnits="userSpaceOnUse">
<stop stop-color="#446EFF"/>
<stop offset="0.423918" stop-color="#8B40FF"/>
<stop offset="1" stop-color="#FF6669"/>
</linearGradient>
<linearGradient id="paint14_linear" x1="181.69" y1="495.089" x2="180.974" y2="441.129" gradientUnits="userSpaceOnUse">
<stop stop-color="#446EFF"/>
<stop offset="0.423918" stop-color="#8B40FF"/>
<stop offset="1" stop-color="#FF6669"/>
</linearGradient>
<linearGradient id="paint15_linear" x1="181.69" y1="515.223" x2="180.974" y2="461.262" gradientUnits="userSpaceOnUse">
<stop stop-color="#446EFF"/>
<stop offset="0.423918" stop-color="#8B40FF"/>
<stop offset="1" stop-color="#FF6669"/>
</linearGradient>
<linearGradient id="paint16_linear" x1="181.69" y1="535.357" x2="180.974" y2="481.395" gradientUnits="userSpaceOnUse">
<stop stop-color="#446EFF"/>
<stop offset="0.423918" stop-color="#8B40FF"/>
<stop offset="1" stop-color="#FF6669"/>
</linearGradient>
<linearGradient id="paint17_linear" x1="181.69" y1="555.49" x2="180.974" y2="501.528" gradientUnits="userSpaceOnUse">
<stop stop-color="#446EFF"/>
<stop offset="0.423918" stop-color="#8B40FF"/>
<stop offset="1" stop-color="#FF6669"/>
</linearGradient>
<linearGradient id="paint18_linear" x1="181.69" y1="575.623" x2="180.974" y2="521.663" gradientUnits="userSpaceOnUse">
<stop stop-color="#446EFF"/>
<stop offset="0.423918" stop-color="#8B40FF"/>
<stop offset="1" stop-color="#FF6669"/>
</linearGradient>
<linearGradient id="paint19_linear" x1="1280.36" y1="479.211" x2="1279.82" y2="438.446" gradientUnits="userSpaceOnUse">
<stop stop-color="#446EFF"/>
<stop offset="0.423918" stop-color="#8B40FF"/>
<stop offset="1" stop-color="#FF6669"/>
</linearGradient>
<linearGradient id="paint20_linear" x1="1280.36" y1="464.001" x2="1279.82" y2="423.236" gradientUnits="userSpaceOnUse">
<stop stop-color="#446EFF"/>
<stop offset="0.423918" stop-color="#8B40FF"/>
<stop offset="1" stop-color="#FF6669"/>
</linearGradient>
<linearGradient id="paint21_linear" x1="1280.36" y1="448.79" x2="1279.82" y2="408.025" gradientUnits="userSpaceOnUse">
<stop stop-color="#446EFF"/>
<stop offset="0.423918" stop-color="#8B40FF"/>
<stop offset="1" stop-color="#FF6669"/>
</linearGradient>
<linearGradient id="paint22_linear" x1="1280.36" y1="433.581" x2="1279.82" y2="392.816" gradientUnits="userSpaceOnUse">
<stop stop-color="#446EFF"/>
<stop offset="0.423918" stop-color="#8B40FF"/>
<stop offset="1" stop-color="#FF6669"/>
</linearGradient>
<linearGradient id="paint23_linear" x1="1280.36" y1="418.371" x2="1279.82" y2="377.607" gradientUnits="userSpaceOnUse">
<stop stop-color="#446EFF"/>
<stop offset="0.423918" stop-color="#8B40FF"/>
<stop offset="1" stop-color="#FF6669"/>
</linearGradient>
<linearGradient id="paint24_linear" x1="1280.36" y1="403.16" x2="1279.82" y2="362.395" gradientUnits="userSpaceOnUse">
<stop stop-color="#446EFF"/>
<stop offset="0.423918" stop-color="#8B40FF"/>
<stop offset="1" stop-color="#FF6669"/>
</linearGradient>
<linearGradient id="paint25_linear" x1="1280.36" y1="387.951" x2="1279.82" y2="347.187" gradientUnits="userSpaceOnUse">
<stop stop-color="#446EFF"/>
<stop offset="0.423918" stop-color="#8B40FF"/>
<stop offset="1" stop-color="#FF6669"/>
</linearGradient>
<linearGradient id="paint26_linear" x1="1280.36" y1="372.741" x2="1279.82" y2="331.976" gradientUnits="userSpaceOnUse">
<stop stop-color="#446EFF"/>
<stop offset="0.423918" stop-color="#8B40FF"/>
<stop offset="1" stop-color="#FF6669"/>
</linearGradient>
<linearGradient id="paint27_linear" x1="1280.36" y1="357.531" x2="1279.82" y2="316.768" gradientUnits="userSpaceOnUse">
<stop stop-color="#446EFF"/>
<stop offset="0.423918" stop-color="#8B40FF"/>
<stop offset="1" stop-color="#FF6669"/>
</linearGradient>
<linearGradient id="paint28_linear" x1="1280.36" y1="342.321" x2="1279.82" y2="301.557" gradientUnits="userSpaceOnUse">
<stop stop-color="#446EFF"/>
<stop offset="0.423918" stop-color="#8B40FF"/>
<stop offset="1" stop-color="#FF6669"/>
</linearGradient>
<linearGradient id="paint29_linear" x1="1280.36" y1="327.113" x2="1279.82" y2="286.348" gradientUnits="userSpaceOnUse">
<stop stop-color="#446EFF"/>
<stop offset="0.423918" stop-color="#8B40FF"/>
<stop offset="1" stop-color="#FF6669"/>
</linearGradient>
<linearGradient id="paint30_linear" x1="1280.36" y1="311.901" x2="1279.82" y2="271.138" gradientUnits="userSpaceOnUse">
<stop stop-color="#446EFF"/>
<stop offset="0.423918" stop-color="#8B40FF"/>
<stop offset="1" stop-color="#FF6669"/>
</linearGradient>
<linearGradient id="paint31_linear" x1="1280.36" y1="296.692" x2="1279.82" y2="255.928" gradientUnits="userSpaceOnUse">
<stop stop-color="#446EFF"/>
<stop offset="0.423918" stop-color="#8B40FF"/>
<stop offset="1" stop-color="#FF6669"/>
</linearGradient>
<linearGradient id="paint32_linear" x1="1280.36" y1="281.483" x2="1279.82" y2="240.718" gradientUnits="userSpaceOnUse">
<stop stop-color="#446EFF"/>
<stop offset="0.423918" stop-color="#8B40FF"/>
<stop offset="1" stop-color="#FF6669"/>
</linearGradient>
<linearGradient id="paint33_linear" x1="1280.36" y1="266.274" x2="1279.82" y2="225.509" gradientUnits="userSpaceOnUse">
<stop stop-color="#446EFF"/>
<stop offset="0.423918" stop-color="#8B40FF"/>
<stop offset="1" stop-color="#FF6669"/>
</linearGradient>
<linearGradient id="paint34_linear" x1="1280.36" y1="251.063" x2="1279.82" y2="210.298" gradientUnits="userSpaceOnUse">
<stop stop-color="#446EFF"/>
<stop offset="0.423918" stop-color="#8B40FF"/>
<stop offset="1" stop-color="#FF6669"/>
</linearGradient>
<linearGradient id="paint35_linear" x1="1572.69" y1="48.1494" x2="445.978" y2="133.885" gradientUnits="userSpaceOnUse">
<stop stop-color="#446EFF"/>
<stop offset="0.423918" stop-color="#8B40FF"/>
<stop offset="1" stop-color="#FF6669"/>
</linearGradient>
</defs>
</svg>
