<svg width="375" height="539" viewBox="0 0 375 539" fill="none" xmlns="http://www.w3.org/2000/svg">
<path d="M-1 0H375V539H-1L-1 0Z" fill="white"/>
<path d="M34.9524 172.951C34.9524 173.476 34.5155 173.901 33.9762 173.901C33.4369 173.901 33 173.476 33 172.951C33 172.425 33.4369 172 33.9762 172C34.5155 172 34.9524 172.425 34.9524 172.951Z" fill="white"/>
<path d="M49.0832 172.951C49.0832 173.476 48.6463 173.901 48.107 173.901C47.5677 173.901 47.1309 173.476 47.1309 172.951C47.1309 172.425 47.5677 172 48.107 172C48.6463 172 49.0832 172.425 49.0832 172.951Z" fill="#FF5148"/>
<path d="M63.2143 172.951C63.2143 173.476 62.7774 173.901 62.2381 173.901C61.6988 173.901 61.262 173.476 61.262 172.951C61.262 172.425 61.6988 172 62.2381 172C62.7774 172 63.2143 172.425 63.2143 172.951Z" fill="#FF5148"/>
<path d="M77.3452 172.951C77.3452 173.476 76.9083 173.901 76.369 173.901C75.8297 173.901 75.3928 173.476 75.3928 172.951C75.3928 172.425 75.8297 172 76.369 172C76.9083 172 77.3452 172.425 77.3452 172.951Z" fill="white"/>
<path d="M91.4761 172.951C91.4761 173.476 91.0392 173.901 90.4999 173.901C89.9606 173.901 89.5237 173.476 89.5237 172.951C89.5237 172.425 89.9606 172 90.4999 172C91.0392 172 91.4761 172.425 91.4761 172.951Z" fill="#FF5148"/>
<path d="M105.607 172.951C105.607 173.476 105.17 173.901 104.631 173.901C104.092 173.901 103.655 173.476 103.655 172.951C103.655 172.425 104.092 172 104.631 172C105.17 172 105.607 172.425 105.607 172.951Z" fill="#FF5148"/>
<path d="M119.738 172.951C119.738 173.476 119.301 173.901 118.762 173.901C118.223 173.901 117.786 173.476 117.786 172.951C117.786 172.425 118.223 172 118.762 172C119.301 172 119.738 172.425 119.738 172.951Z" fill="#FF5148"/>
<path d="M133.869 172.951C133.869 173.476 133.432 173.901 132.893 173.901C132.354 173.901 131.917 173.476 131.917 172.951C131.917 172.425 132.354 172 132.893 172C133.432 172 133.869 172.425 133.869 172.951Z" fill="#FF5148"/>
<path d="M148 172.951C148 173.476 147.563 173.901 147.024 173.901C146.484 173.901 146.048 173.476 146.048 172.951C146.048 172.425 146.484 172 147.024 172C147.563 172 148 172.425 148 172.951Z" fill="#FF5148"/>
<path d="M34.9524 182.202C34.9524 182.727 34.5155 183.153 33.9762 183.153C33.4369 183.153 33 182.727 33 182.202C33 181.677 33.4369 181.251 33.9762 181.251C34.5155 181.251 34.9524 181.677 34.9524 182.202Z" fill="#FF5148"/>
<path d="M49.0832 182.202C49.0832 182.727 48.6463 183.153 48.107 183.153C47.5677 183.153 47.1309 182.727 47.1309 182.202C47.1309 181.677 47.5677 181.251 48.107 181.251C48.6463 181.251 49.0832 181.677 49.0832 182.202Z" fill="#FF5148"/>
<path d="M63.2143 182.202C63.2143 182.727 62.7774 183.153 62.2381 183.153C61.6988 183.153 61.262 182.727 61.262 182.202C61.262 181.677 61.6988 181.251 62.2381 181.251C62.7774 181.251 63.2143 181.677 63.2143 182.202Z" fill="#FF5148"/>
<path d="M77.3452 182.202C77.3452 182.727 76.9083 183.153 76.369 183.153C75.8297 183.153 75.3928 182.727 75.3928 182.202C75.3928 181.677 75.8297 181.251 76.369 181.251C76.9083 181.251 77.3452 181.677 77.3452 182.202Z" fill="#FF5148"/>
<path d="M91.4761 182.202C91.4761 182.727 91.0392 183.153 90.4999 183.153C89.9606 183.153 89.5237 182.727 89.5237 182.202C89.5237 181.677 89.9606 181.251 90.4999 181.251C91.0392 181.251 91.4761 181.677 91.4761 182.202Z" fill="#FF5148"/>
<path d="M105.607 182.202C105.607 182.727 105.17 183.153 104.631 183.153C104.092 183.153 103.655 182.727 103.655 182.202C103.655 181.677 104.092 181.251 104.631 181.251C105.17 181.251 105.607 181.677 105.607 182.202Z" fill="white"/>
<path d="M119.738 182.202C119.738 182.727 119.301 183.153 118.762 183.153C118.223 183.153 117.786 182.727 117.786 182.202C117.786 181.677 118.223 181.251 118.762 181.251C119.301 181.251 119.738 181.677 119.738 182.202Z" fill="#FF5148"/>
<path d="M133.869 182.202C133.869 182.727 133.432 183.153 132.893 183.153C132.354 183.153 131.917 182.727 131.917 182.202C131.917 181.677 132.354 181.251 132.893 181.251C133.432 181.251 133.869 181.677 133.869 182.202Z" fill="#FF5148"/>
<path d="M148 182.202C148 182.727 147.563 183.153 147.024 183.153C146.484 183.153 146.048 182.727 146.048 182.202C146.048 181.677 146.484 181.251 147.024 181.251C147.563 181.251 148 181.677 148 182.202Z" fill="white"/>
<path d="M34.9524 191.453C34.9524 191.979 34.5155 192.404 33.9762 192.404C33.4369 192.404 33 191.979 33 191.453C33 190.928 33.4369 190.503 33.9762 190.503C34.5155 190.503 34.9524 190.928 34.9524 191.453Z" fill="#FF5148"/>
<path d="M49.0832 191.453C49.0832 191.979 48.6463 192.404 48.107 192.404C47.5677 192.404 47.1309 191.979 47.1309 191.453C47.1309 190.928 47.5677 190.503 48.107 190.503C48.6463 190.503 49.0832 190.928 49.0832 191.453Z" fill="white"/>
<path d="M63.2143 191.453C63.2143 191.979 62.7774 192.404 62.2381 192.404C61.6988 192.404 61.262 191.979 61.262 191.453C61.262 190.928 61.6988 190.503 62.2381 190.503C62.7774 190.503 63.2143 190.928 63.2143 191.453Z" fill="#FF5148"/>
<path d="M77.3452 191.453C77.3452 191.979 76.9083 192.404 76.369 192.404C75.8297 192.404 75.3928 191.979 75.3928 191.453C75.3928 190.928 75.8297 190.503 76.369 190.503C76.9083 190.503 77.3452 190.928 77.3452 191.453Z" fill="#FF5148"/>
<path d="M91.4761 191.453C91.4761 191.979 91.0392 192.404 90.4999 192.404C89.9606 192.404 89.5237 191.979 89.5237 191.453C89.5237 190.928 89.9606 190.503 90.4999 190.503C91.0392 190.503 91.4761 190.928 91.4761 191.453Z" fill="#FF5148"/>
<path d="M105.607 191.453C105.607 191.979 105.17 192.404 104.631 192.404C104.092 192.404 103.655 191.979 103.655 191.453C103.655 190.928 104.092 190.503 104.631 190.503C105.17 190.503 105.607 190.928 105.607 191.453Z" fill="#FF5148"/>
<path d="M119.738 191.453C119.738 191.979 119.301 192.404 118.762 192.404C118.223 192.404 117.786 191.979 117.786 191.453C117.786 190.928 118.223 190.503 118.762 190.503C119.301 190.503 119.738 190.928 119.738 191.453Z" fill="white"/>
<path d="M133.869 191.453C133.869 191.979 133.432 192.404 132.893 192.404C132.354 192.404 131.917 191.979 131.917 191.453C131.917 190.928 132.354 190.503 132.893 190.503C133.432 190.503 133.869 190.928 133.869 191.453Z" fill="#FF5148"/>
<path d="M148 191.453C148 191.979 147.563 192.404 147.024 192.404C146.484 192.404 146.048 191.979 146.048 191.453C146.048 190.928 146.484 190.503 147.024 190.503C147.563 190.503 148 190.928 148 191.453Z" fill="#FF5148"/>
<path d="M34.9524 200.705C34.9524 201.23 34.5155 201.656 33.9762 201.656C33.4369 201.656 33 201.23 33 200.705C33 200.18 33.4369 199.754 33.9762 199.754C34.5155 199.754 34.9524 200.18 34.9524 200.705Z" fill="#FF5148"/>
<path d="M49.0832 200.705C49.0832 201.23 48.6463 201.656 48.107 201.656C47.5677 201.656 47.1309 201.23 47.1309 200.705C47.1309 200.18 47.5677 199.754 48.107 199.754C48.6463 199.754 49.0832 200.18 49.0832 200.705Z" fill="#FF5148"/>
<path d="M63.2143 200.705C63.2143 201.23 62.7774 201.656 62.2381 201.656C61.6988 201.656 61.262 201.23 61.262 200.705C61.262 200.18 61.6988 199.754 62.2381 199.754C62.7774 199.754 63.2143 200.18 63.2143 200.705Z" fill="white"/>
<path d="M77.3452 200.705C77.3452 201.23 76.9083 201.656 76.369 201.656C75.8297 201.656 75.3928 201.23 75.3928 200.705C75.3928 200.18 75.8297 199.754 76.369 199.754C76.9083 199.754 77.3452 200.18 77.3452 200.705Z" fill="#FF5148"/>
<path d="M91.4761 200.705C91.4761 201.23 91.0392 201.656 90.4999 201.656C89.9606 201.656 89.5237 201.23 89.5237 200.705C89.5237 200.18 89.9606 199.754 90.4999 199.754C91.0392 199.754 91.4761 200.18 91.4761 200.705Z" fill="white"/>
<path d="M105.607 200.705C105.607 201.23 105.17 201.656 104.631 201.656C104.092 201.656 103.655 201.23 103.655 200.705C103.655 200.18 104.092 199.754 104.631 199.754C105.17 199.754 105.607 200.18 105.607 200.705Z" fill="#FF5148"/>
<path d="M119.738 200.705C119.738 201.23 119.301 201.656 118.762 201.656C118.223 201.656 117.786 201.23 117.786 200.705C117.786 200.18 118.223 199.754 118.762 199.754C119.301 199.754 119.738 200.18 119.738 200.705Z" fill="#FF5148"/>
<path d="M133.869 200.705C133.869 201.23 133.432 201.656 132.893 201.656C132.354 201.656 131.917 201.23 131.917 200.705C131.917 200.18 132.354 199.754 132.893 199.754C133.432 199.754 133.869 200.18 133.869 200.705Z" fill="#FF5148"/>
<path d="M148 200.705C148 201.23 147.563 201.656 147.024 201.656C146.484 201.656 146.048 201.23 146.048 200.705C146.048 200.18 146.484 199.754 147.024 199.754C147.563 199.754 148 200.18 148 200.705Z" fill="#FF5148"/>
<path d="M34.9524 209.956C34.9524 210.481 34.5155 210.907 33.9762 210.907C33.4369 210.907 33 210.481 33 209.956C33 209.431 33.4369 209.005 33.9762 209.005C34.5155 209.005 34.9524 209.431 34.9524 209.956Z" fill="#FF5148"/>
<path d="M49.0832 209.956C49.0832 210.481 48.6463 210.907 48.107 210.907C47.5677 210.907 47.1309 210.481 47.1309 209.956C47.1309 209.431 47.5677 209.005 48.107 209.005C48.6463 209.005 49.0832 209.431 49.0832 209.956Z" fill="#FF5148"/>
<path d="M63.2143 209.956C63.2143 210.481 62.7774 210.907 62.2381 210.907C61.6988 210.907 61.262 210.481 61.262 209.956C61.262 209.431 61.6988 209.005 62.2381 209.005C62.7774 209.005 63.2143 209.431 63.2143 209.956Z" fill="#FF5148"/>
<path d="M77.3452 209.956C77.3452 210.481 76.9083 210.907 76.369 210.907C75.8297 210.907 75.3928 210.481 75.3928 209.956C75.3928 209.431 75.8297 209.005 76.369 209.005C76.9083 209.005 77.3452 209.431 77.3452 209.956Z" fill="#FF5148"/>
<path d="M91.4761 209.956C91.4761 210.481 91.0392 210.907 90.4999 210.907C89.9606 210.907 89.5237 210.481 89.5237 209.956C89.5237 209.431 89.9606 209.005 90.4999 209.005C91.0392 209.005 91.4761 209.431 91.4761 209.956Z" fill="#FF5148"/>
<path d="M105.607 209.956C105.607 210.481 105.17 210.907 104.631 210.907C104.092 210.907 103.655 210.481 103.655 209.956C103.655 209.431 104.092 209.005 104.631 209.005C105.17 209.005 105.607 209.431 105.607 209.956Z" fill="#FF5148"/>
<path d="M119.738 209.956C119.738 210.481 119.301 210.907 118.762 210.907C118.223 210.907 117.786 210.481 117.786 209.956C117.786 209.431 118.223 209.005 118.762 209.005C119.301 209.005 119.738 209.431 119.738 209.956Z" fill="#FF5148"/>
<path d="M133.869 209.956C133.869 210.481 133.432 210.907 132.893 210.907C132.354 210.907 131.917 210.481 131.917 209.956C131.917 209.431 132.354 209.005 132.893 209.005C133.432 209.005 133.869 209.431 133.869 209.956Z" fill="white"/>
<path d="M148 209.956C148 210.482 147.563 210.907 147.024 210.907C146.484 210.907 146.048 210.482 146.048 209.956C146.048 209.431 146.484 209.006 147.024 209.006C147.563 209.006 148 209.431 148 209.956Z" fill="white"/>
<path d="M227.952 374.951C227.952 375.476 227.515 375.901 226.976 375.901C226.437 375.901 226 375.476 226 374.951C226 374.425 226.437 374 226.976 374C227.515 374 227.952 374.425 227.952 374.951Z" fill="white"/>
<path d="M242.083 374.951C242.083 375.476 241.646 375.901 241.107 375.901C240.568 375.901 240.131 375.476 240.131 374.951C240.131 374.425 240.568 374 241.107 374C241.646 374 242.083 374.425 242.083 374.951Z" fill="#FF5148"/>
<path d="M256.214 374.951C256.214 375.476 255.777 375.901 255.238 375.901C254.699 375.901 254.262 375.476 254.262 374.951C254.262 374.425 254.699 374 255.238 374C255.777 374 256.214 374.425 256.214 374.951Z" fill="#FF5148"/>
<path d="M270.345 374.951C270.345 375.476 269.908 375.901 269.369 375.901C268.83 375.901 268.393 375.476 268.393 374.951C268.393 374.425 268.83 374 269.369 374C269.908 374 270.345 374.425 270.345 374.951Z" fill="white"/>
<path d="M284.476 374.951C284.476 375.476 284.039 375.901 283.5 375.901C282.961 375.901 282.524 375.476 282.524 374.951C282.524 374.425 282.961 374 283.5 374C284.039 374 284.476 374.425 284.476 374.951Z" fill="#FF5148"/>
<path d="M298.607 374.951C298.607 375.476 298.17 375.901 297.631 375.901C297.092 375.901 296.655 375.476 296.655 374.951C296.655 374.425 297.092 374 297.631 374C298.17 374 298.607 374.425 298.607 374.951Z" fill="#FF5148"/>
<path d="M312.738 374.951C312.738 375.476 312.301 375.901 311.762 375.901C311.223 375.901 310.786 375.476 310.786 374.951C310.786 374.425 311.223 374 311.762 374C312.301 374 312.738 374.425 312.738 374.951Z" fill="#FF5148"/>
<path d="M326.869 374.951C326.869 375.476 326.432 375.901 325.893 375.901C325.354 375.901 324.917 375.476 324.917 374.951C324.917 374.425 325.354 374 325.893 374C326.432 374 326.869 374.425 326.869 374.951Z" fill="#FF5148"/>
<path d="M341 374.951C341 375.476 340.563 375.901 340.024 375.901C339.484 375.901 339.048 375.476 339.048 374.951C339.048 374.425 339.484 374 340.024 374C340.563 374 341 374.425 341 374.951Z" fill="#FF5148"/>
<path d="M227.952 384.202C227.952 384.727 227.515 385.153 226.976 385.153C226.437 385.153 226 384.727 226 384.202C226 383.677 226.437 383.251 226.976 383.251C227.515 383.251 227.952 383.677 227.952 384.202Z" fill="#FF5148"/>
<path d="M242.083 384.202C242.083 384.727 241.646 385.153 241.107 385.153C240.568 385.153 240.131 384.727 240.131 384.202C240.131 383.677 240.568 383.251 241.107 383.251C241.646 383.251 242.083 383.677 242.083 384.202Z" fill="#FF5148"/>
<path d="M256.214 384.202C256.214 384.727 255.777 385.153 255.238 385.153C254.699 385.153 254.262 384.727 254.262 384.202C254.262 383.677 254.699 383.251 255.238 383.251C255.777 383.251 256.214 383.677 256.214 384.202Z" fill="#FF5148"/>
<path d="M270.345 384.202C270.345 384.727 269.908 385.153 269.369 385.153C268.83 385.153 268.393 384.727 268.393 384.202C268.393 383.677 268.83 383.251 269.369 383.251C269.908 383.251 270.345 383.677 270.345 384.202Z" fill="#FF5148"/>
<path d="M284.476 384.202C284.476 384.727 284.039 385.153 283.5 385.153C282.961 385.153 282.524 384.727 282.524 384.202C282.524 383.677 282.961 383.251 283.5 383.251C284.039 383.251 284.476 383.677 284.476 384.202Z" fill="#FF5148"/>
<path d="M298.607 384.202C298.607 384.727 298.17 385.153 297.631 385.153C297.092 385.153 296.655 384.727 296.655 384.202C296.655 383.677 297.092 383.251 297.631 383.251C298.17 383.251 298.607 383.677 298.607 384.202Z" fill="white"/>
<path d="M312.738 384.202C312.738 384.727 312.301 385.153 311.762 385.153C311.223 385.153 310.786 384.727 310.786 384.202C310.786 383.677 311.223 383.251 311.762 383.251C312.301 383.251 312.738 383.677 312.738 384.202Z" fill="#FF5148"/>
<path d="M326.869 384.202C326.869 384.727 326.432 385.153 325.893 385.153C325.354 385.153 324.917 384.727 324.917 384.202C324.917 383.677 325.354 383.251 325.893 383.251C326.432 383.251 326.869 383.677 326.869 384.202Z" fill="#FF5148"/>
<path d="M341 384.202C341 384.727 340.563 385.153 340.024 385.153C339.484 385.153 339.048 384.727 339.048 384.202C339.048 383.677 339.484 383.251 340.024 383.251C340.563 383.251 341 383.677 341 384.202Z" fill="white"/>
<path d="M227.952 393.453C227.952 393.979 227.515 394.404 226.976 394.404C226.437 394.404 226 393.979 226 393.453C226 392.928 226.437 392.503 226.976 392.503C227.515 392.503 227.952 392.928 227.952 393.453Z" fill="#FF5148"/>
<path d="M242.083 393.453C242.083 393.979 241.646 394.404 241.107 394.404C240.568 394.404 240.131 393.979 240.131 393.453C240.131 392.928 240.568 392.503 241.107 392.503C241.646 392.503 242.083 392.928 242.083 393.453Z" fill="white"/>
<path d="M256.214 393.453C256.214 393.979 255.777 394.404 255.238 394.404C254.699 394.404 254.262 393.979 254.262 393.453C254.262 392.928 254.699 392.503 255.238 392.503C255.777 392.503 256.214 392.928 256.214 393.453Z" fill="#FF5148"/>
<path d="M270.345 393.453C270.345 393.979 269.908 394.404 269.369 394.404C268.83 394.404 268.393 393.979 268.393 393.453C268.393 392.928 268.83 392.503 269.369 392.503C269.908 392.503 270.345 392.928 270.345 393.453Z" fill="#FF5148"/>
<path d="M284.476 393.453C284.476 393.979 284.039 394.404 283.5 394.404C282.961 394.404 282.524 393.979 282.524 393.453C282.524 392.928 282.961 392.503 283.5 392.503C284.039 392.503 284.476 392.928 284.476 393.453Z" fill="#FF5148"/>
<path d="M298.607 393.453C298.607 393.979 298.17 394.404 297.631 394.404C297.092 394.404 296.655 393.979 296.655 393.453C296.655 392.928 297.092 392.503 297.631 392.503C298.17 392.503 298.607 392.928 298.607 393.453Z" fill="#FF5148"/>
<path d="M312.738 393.453C312.738 393.979 312.301 394.404 311.762 394.404C311.223 394.404 310.786 393.979 310.786 393.453C310.786 392.928 311.223 392.503 311.762 392.503C312.301 392.503 312.738 392.928 312.738 393.453Z" fill="white"/>
<path d="M326.869 393.453C326.869 393.979 326.432 394.404 325.893 394.404C325.354 394.404 324.917 393.979 324.917 393.453C324.917 392.928 325.354 392.503 325.893 392.503C326.432 392.503 326.869 392.928 326.869 393.453Z" fill="#FF5148"/>
<path d="M341 393.453C341 393.979 340.563 394.404 340.024 394.404C339.484 394.404 339.048 393.979 339.048 393.453C339.048 392.928 339.484 392.503 340.024 392.503C340.563 392.503 341 392.928 341 393.453Z" fill="#FF5148"/>
<path d="M227.952 402.705C227.952 403.23 227.515 403.656 226.976 403.656C226.437 403.656 226 403.23 226 402.705C226 402.18 226.437 401.754 226.976 401.754C227.515 401.754 227.952 402.18 227.952 402.705Z" fill="#FF5148"/>
<path d="M242.083 402.705C242.083 403.23 241.646 403.656 241.107 403.656C240.568 403.656 240.131 403.23 240.131 402.705C240.131 402.18 240.568 401.754 241.107 401.754C241.646 401.754 242.083 402.18 242.083 402.705Z" fill="#FF5148"/>
<path d="M256.214 402.705C256.214 403.23 255.777 403.656 255.238 403.656C254.699 403.656 254.262 403.23 254.262 402.705C254.262 402.18 254.699 401.754 255.238 401.754C255.777 401.754 256.214 402.18 256.214 402.705Z" fill="white"/>
<path d="M270.345 402.705C270.345 403.23 269.908 403.656 269.369 403.656C268.83 403.656 268.393 403.23 268.393 402.705C268.393 402.18 268.83 401.754 269.369 401.754C269.908 401.754 270.345 402.18 270.345 402.705Z" fill="#FF5148"/>
<path d="M284.476 402.705C284.476 403.23 284.039 403.656 283.5 403.656C282.961 403.656 282.524 403.23 282.524 402.705C282.524 402.18 282.961 401.754 283.5 401.754C284.039 401.754 284.476 402.18 284.476 402.705Z" fill="white"/>
<path d="M298.607 402.705C298.607 403.23 298.17 403.656 297.631 403.656C297.092 403.656 296.655 403.23 296.655 402.705C296.655 402.18 297.092 401.754 297.631 401.754C298.17 401.754 298.607 402.18 298.607 402.705Z" fill="#FF5148"/>
<path d="M312.738 402.705C312.738 403.23 312.301 403.656 311.762 403.656C311.223 403.656 310.786 403.23 310.786 402.705C310.786 402.18 311.223 401.754 311.762 401.754C312.301 401.754 312.738 402.18 312.738 402.705Z" fill="#FF5148"/>
<path d="M326.869 402.705C326.869 403.23 326.432 403.656 325.893 403.656C325.354 403.656 324.917 403.23 324.917 402.705C324.917 402.18 325.354 401.754 325.893 401.754C326.432 401.754 326.869 402.18 326.869 402.705Z" fill="#FF5148"/>
<path d="M341 402.705C341 403.23 340.563 403.656 340.024 403.656C339.484 403.656 339.048 403.23 339.048 402.705C339.048 402.18 339.484 401.754 340.024 401.754C340.563 401.754 341 402.18 341 402.705Z" fill="#FF5148"/>
<path d="M227.952 411.956C227.952 412.481 227.515 412.907 226.976 412.907C226.437 412.907 226 412.481 226 411.956C226 411.431 226.437 411.005 226.976 411.005C227.515 411.005 227.952 411.431 227.952 411.956Z" fill="#FF5148"/>
<path d="M242.083 411.956C242.083 412.481 241.646 412.907 241.107 412.907C240.568 412.907 240.131 412.481 240.131 411.956C240.131 411.431 240.568 411.005 241.107 411.005C241.646 411.005 242.083 411.431 242.083 411.956Z" fill="#FF5148"/>
<path d="M256.214 411.956C256.214 412.481 255.777 412.907 255.238 412.907C254.699 412.907 254.262 412.481 254.262 411.956C254.262 411.431 254.699 411.005 255.238 411.005C255.777 411.005 256.214 411.431 256.214 411.956Z" fill="#FF5148"/>
<path d="M270.345 411.956C270.345 412.481 269.908 412.907 269.369 412.907C268.83 412.907 268.393 412.481 268.393 411.956C268.393 411.431 268.83 411.005 269.369 411.005C269.908 411.005 270.345 411.431 270.345 411.956Z" fill="#FF5148"/>
<path d="M284.476 411.956C284.476 412.481 284.039 412.907 283.5 412.907C282.961 412.907 282.524 412.481 282.524 411.956C282.524 411.431 282.961 411.005 283.5 411.005C284.039 411.005 284.476 411.431 284.476 411.956Z" fill="#FF5148"/>
<path d="M298.607 411.956C298.607 412.481 298.17 412.907 297.631 412.907C297.092 412.907 296.655 412.481 296.655 411.956C296.655 411.431 297.092 411.005 297.631 411.005C298.17 411.005 298.607 411.431 298.607 411.956Z" fill="#FF5148"/>
<path d="M312.738 411.956C312.738 412.481 312.301 412.907 311.762 412.907C311.223 412.907 310.786 412.481 310.786 411.956C310.786 411.431 311.223 411.005 311.762 411.005C312.301 411.005 312.738 411.431 312.738 411.956Z" fill="#FF5148"/>
<path d="M326.869 411.956C326.869 412.481 326.432 412.907 325.893 412.907C325.354 412.907 324.917 412.481 324.917 411.956C324.917 411.431 325.354 411.005 325.893 411.005C326.432 411.005 326.869 411.431 326.869 411.956Z" fill="white"/>
<path d="M341 411.956C341 412.482 340.563 412.907 340.024 412.907C339.484 412.907 339.048 412.482 339.048 411.956C339.048 411.431 339.484 411.006 340.024 411.006C340.563 411.006 341 411.431 341 411.956Z" fill="white"/>
<g opacity="0.8">
<path d="M326 389.409L332.788 396.015L350.252 379.02L367.717 396.015L374.504 389.409L350.252 365.81L326 389.409Z" stroke="url(#paint0_linear)" stroke-width="0.605734" stroke-miterlimit="10"/>
<g opacity="0.9375">
<g opacity="0.9375">
<path opacity="0.9375" d="M350.252 365.47L367.717 382.463L374.504 375.859L350.252 352.259L326 375.859L332.789 382.463L350.252 365.47Z" stroke="url(#paint1_linear)" stroke-width="0.605734" stroke-miterlimit="10"/>
</g>
</g>
<g opacity="0.875">
<g opacity="0.875">
<path opacity="0.875" d="M350.252 351.92L367.717 368.913L374.504 362.308L350.252 338.709L326 362.308L332.789 368.913L350.252 351.92Z" stroke="url(#paint2_linear)" stroke-width="0.605734" stroke-miterlimit="10"/>
</g>
</g>
<g opacity="0.8125">
<g opacity="0.8125">
<path opacity="0.8125" d="M350.252 338.369L367.717 355.362L374.504 348.758L350.252 325.158L326 348.758L332.789 355.362L350.252 338.369Z" stroke="url(#paint3_linear)" stroke-width="0.605734" stroke-miterlimit="10"/>
</g>
</g>
<g opacity="0.75">
<g opacity="0.75">
<path opacity="0.75" d="M350.252 324.819L367.717 341.813L374.504 335.207L350.252 311.607L326 335.207L332.789 341.813L350.252 324.819Z" stroke="url(#paint4_linear)" stroke-width="0.605734" stroke-miterlimit="10"/>
</g>
</g>
<g opacity="0.6875">
<g opacity="0.6875">
<path opacity="0.6875" d="M350.252 311.268L367.717 328.262L374.504 321.656L350.252 298.057L326 321.656L332.789 328.262L350.252 311.268Z" stroke="url(#paint5_linear)" stroke-width="0.605734" stroke-miterlimit="10"/>
</g>
</g>
<g opacity="0.625">
<g opacity="0.625">
<path opacity="0.625" d="M350.252 297.717L367.717 314.71L374.504 308.106L350.252 284.506L326 308.106L332.789 314.71L350.252 297.717Z" stroke="url(#paint6_linear)" stroke-width="0.605734" stroke-miterlimit="10"/>
</g>
</g>
<g opacity="0.5625">
<g opacity="0.5625">
<path opacity="0.5625" d="M350.252 284.167L367.717 301.16L374.504 294.556L350.252 270.956L326 294.556L332.789 301.16L350.252 284.167Z" stroke="url(#paint7_linear)" stroke-width="0.605734" stroke-miterlimit="10"/>
</g>
</g>
<g opacity="0.5">
<g opacity="0.5">
<path opacity="0.5" d="M350.252 270.616L367.717 287.609L374.504 281.005L350.252 257.405L326 281.005L332.789 287.609L350.252 270.616Z" stroke="url(#paint8_linear)" stroke-width="0.605734" stroke-miterlimit="10"/>
</g>
</g>
<g opacity="0.4375">
<g opacity="0.4375">
<path opacity="0.4375" d="M350.252 257.065L367.717 274.059L374.504 267.454L350.252 243.854L326 267.454L332.789 274.059L350.252 257.065Z" stroke="url(#paint9_linear)" stroke-width="0.605734" stroke-miterlimit="10"/>
</g>
</g>
<g opacity="0.375">
<g opacity="0.375">
<path opacity="0.375" d="M350.252 243.514L367.717 260.508L374.504 253.903L350.252 230.303L326 253.903L332.789 260.508L350.252 243.514Z" stroke="url(#paint10_linear)" stroke-width="0.605734" stroke-miterlimit="10"/>
</g>
</g>
<g opacity="0.3125">
<g opacity="0.3125">
<path opacity="0.3125" d="M350.252 229.964L367.717 246.957L374.504 240.352L350.252 216.752L326 240.352L332.789 246.957L350.252 229.964Z" stroke="url(#paint11_linear)" stroke-width="0.605734" stroke-miterlimit="10"/>
</g>
</g>
<g opacity="0.25">
<g opacity="0.25">
<path opacity="0.25" d="M350.252 216.413L367.717 233.407L374.504 226.802L350.252 203.202L326 226.802L332.789 233.407L350.252 216.413Z" stroke="url(#paint12_linear)" stroke-width="0.605734" stroke-miterlimit="10"/>
</g>
</g>
<g opacity="0.1875">
<g opacity="0.1875">
<path opacity="0.1875" d="M350.252 202.862L367.717 219.856L374.504 213.251L350.252 189.651L326 213.251L332.789 219.856L350.252 202.862Z" stroke="url(#paint13_linear)" stroke-width="0.605734" stroke-miterlimit="10"/>
</g>
</g>
<g opacity="0.125">
<g opacity="0.125">
<path opacity="0.125" d="M350.252 189.312L367.717 206.306L374.504 199.701L350.252 176.101L326 199.701L332.789 206.306L350.252 189.312Z" stroke="url(#paint14_linear)" stroke-width="0.605734" stroke-miterlimit="10"/>
</g>
</g>
<g opacity="0.0625">
<g opacity="0.0625">
<path opacity="0.0625" d="M350.252 175.761L367.717 192.755L374.504 186.15L350.252 162.55L326 186.15L332.789 192.755L350.252 175.761Z" stroke="url(#paint15_linear)" stroke-width="0.605734" stroke-miterlimit="10"/>
</g>
</g>
</g>
<g opacity="0.8">
<path d="M48.5042 191.605L41.7159 185L24.2522 201.994L6.78761 185L0.000243878 191.605L24.2522 215.204L48.5042 191.605Z" stroke="url(#paint16_linear)" stroke-width="0.605734" stroke-miterlimit="10"/>
<g opacity="0.9375">
<g opacity="0.9375">
<path opacity="0.9375" d="M24.252 215.545L6.78736 198.551L-2.31126e-07 205.156L24.252 228.755L48.5039 205.156L41.7156 198.551L24.252 215.545Z" stroke="url(#paint17_linear)" stroke-width="0.605734" stroke-miterlimit="10"/>
</g>
</g>
<g opacity="0.875">
<g opacity="0.875">
<path opacity="0.875" d="M24.252 229.095L6.78736 212.102L-2.31126e-07 218.706L24.252 242.306L48.5039 218.706L41.7156 212.102L24.252 229.095Z" stroke="url(#paint18_linear)" stroke-width="0.605734" stroke-miterlimit="10"/>
</g>
</g>
<g opacity="0.8125">
<g opacity="0.8125">
<path opacity="0.8125" d="M24.252 242.646L6.78736 225.652L-2.31123e-07 232.257L24.252 255.857L48.5039 232.257L41.7156 225.652L24.252 242.646Z" stroke="url(#paint19_linear)" stroke-width="0.605734" stroke-miterlimit="10"/>
</g>
</g>
<g opacity="0.75">
<g opacity="0.75">
<path opacity="0.75" d="M24.252 256.196L6.78736 239.202L-2.3116e-07 245.807L24.252 269.407L48.5039 245.807L41.7156 239.202L24.252 256.196Z" stroke="url(#paint20_linear)" stroke-width="0.605734" stroke-miterlimit="10"/>
</g>
</g>
<g opacity="0.6875">
<g opacity="0.6875">
<path opacity="0.6875" d="M24.252 269.747L6.78736 252.753L-2.31158e-07 259.358L24.252 282.958L48.5039 259.358L41.7156 252.753L24.252 269.747Z" stroke="url(#paint21_linear)" stroke-width="0.605734" stroke-miterlimit="10"/>
</g>
</g>
<g opacity="0.625">
<g opacity="0.625">
<path opacity="0.625" d="M24.252 283.298L6.78736 266.304L-2.31126e-07 272.909L24.252 296.509L48.5039 272.909L41.7156 266.304L24.252 283.298Z" stroke="url(#paint22_linear)" stroke-width="0.605734" stroke-miterlimit="10"/>
</g>
</g>
<g opacity="0.5625">
<g opacity="0.5625">
<path opacity="0.5625" d="M24.252 296.848L6.78736 279.854L-2.31126e-07 286.459L24.252 310.059L48.5039 286.459L41.7156 279.854L24.252 296.848Z" stroke="url(#paint23_linear)" stroke-width="0.605734" stroke-miterlimit="10"/>
</g>
</g>
<g opacity="0.5">
<g opacity="0.5">
<path opacity="0.5" d="M24.252 310.399L6.78736 293.405L-2.31127e-07 300.01L24.252 323.61L48.5039 300.01L41.7156 293.405L24.252 310.399Z" stroke="url(#paint24_linear)" stroke-width="0.605734" stroke-miterlimit="10"/>
</g>
</g>
<g opacity="0.4375">
<g opacity="0.4375">
<path opacity="0.4375" d="M24.252 323.95L6.78736 306.956L-2.31156e-07 313.561L24.252 337.161L48.5039 313.561L41.7156 306.956L24.252 323.95Z" stroke="url(#paint25_linear)" stroke-width="0.605734" stroke-miterlimit="10"/>
</g>
</g>
<g opacity="0.375">
<g opacity="0.375">
<path opacity="0.375" d="M24.252 337.5L6.78736 320.507L-2.31119e-07 327.111L24.252 350.711L48.5039 327.111L41.7156 320.507L24.252 337.5Z" stroke="url(#paint26_linear)" stroke-width="0.605734" stroke-miterlimit="10"/>
</g>
</g>
<g opacity="0.3125">
<g opacity="0.3125">
<path opacity="0.3125" d="M24.252 351.051L6.78736 334.058L-2.31126e-07 340.662L24.252 364.262L48.5039 340.662L41.7156 334.058L24.252 351.051Z" stroke="url(#paint27_linear)" stroke-width="0.605734" stroke-miterlimit="10"/>
</g>
</g>
<g opacity="0.25">
<g opacity="0.25">
<path opacity="0.25" d="M24.252 364.601L6.78736 347.608L-2.31123e-07 354.213L24.252 377.812L48.5039 354.213L41.7156 347.608L24.252 364.601Z" stroke="url(#paint28_linear)" stroke-width="0.605734" stroke-miterlimit="10"/>
</g>
</g>
<g opacity="0.1875">
<g opacity="0.1875">
<path opacity="0.1875" d="M24.252 378.152L6.78736 361.158L-2.31163e-07 367.764L24.252 391.363L48.5039 367.764L41.7156 361.158L24.252 378.152Z" stroke="url(#paint29_linear)" stroke-width="0.605734" stroke-miterlimit="10"/>
</g>
</g>
<g opacity="0.125">
<g opacity="0.125">
<path opacity="0.125" d="M24.252 391.703L6.78736 374.708L-2.31167e-07 381.314L24.252 404.914L48.5039 381.314L41.7156 374.708L24.252 391.703Z" stroke="url(#paint30_linear)" stroke-width="0.605734" stroke-miterlimit="10"/>
</g>
</g>
<g opacity="0.0625">
<g opacity="0.0625">
<path opacity="0.0625" d="M24.252 405.253L6.78736 388.26L-2.31124e-07 394.864L24.252 418.464L48.5039 394.864L41.7156 388.26L24.252 405.253Z" stroke="url(#paint31_linear)" stroke-width="0.605734" stroke-miterlimit="10"/>
</g>
</g>
</g>
<defs>
<linearGradient id="paint0_linear" x1="343.323" y1="361.739" x2="343.804" y2="398.057" gradientUnits="userSpaceOnUse">
<stop stop-color="#446EFF"/>
<stop offset="0.423918" stop-color="#8B40FF"/>
<stop offset="1" stop-color="#FF6669"/>
</linearGradient>
<linearGradient id="paint1_linear" x1="343.323" y1="348.188" x2="343.804" y2="384.505" gradientUnits="userSpaceOnUse">
<stop stop-color="#446EFF"/>
<stop offset="0.423918" stop-color="#8B40FF"/>
<stop offset="1" stop-color="#FF6669"/>
</linearGradient>
<linearGradient id="paint2_linear" x1="343.323" y1="334.638" x2="343.804" y2="370.955" gradientUnits="userSpaceOnUse">
<stop stop-color="#446EFF"/>
<stop offset="0.423918" stop-color="#8B40FF"/>
<stop offset="1" stop-color="#FF6669"/>
</linearGradient>
<linearGradient id="paint3_linear" x1="343.323" y1="321.087" x2="343.804" y2="357.404" gradientUnits="userSpaceOnUse">
<stop stop-color="#446EFF"/>
<stop offset="0.423918" stop-color="#8B40FF"/>
<stop offset="1" stop-color="#FF6669"/>
</linearGradient>
<linearGradient id="paint4_linear" x1="343.323" y1="307.536" x2="343.804" y2="343.855" gradientUnits="userSpaceOnUse">
<stop stop-color="#446EFF"/>
<stop offset="0.423918" stop-color="#8B40FF"/>
<stop offset="1" stop-color="#FF6669"/>
</linearGradient>
<linearGradient id="paint5_linear" x1="343.323" y1="293.986" x2="343.804" y2="330.304" gradientUnits="userSpaceOnUse">
<stop stop-color="#446EFF"/>
<stop offset="0.423918" stop-color="#8B40FF"/>
<stop offset="1" stop-color="#FF6669"/>
</linearGradient>
<linearGradient id="paint6_linear" x1="343.323" y1="280.435" x2="343.804" y2="316.753" gradientUnits="userSpaceOnUse">
<stop stop-color="#446EFF"/>
<stop offset="0.423918" stop-color="#8B40FF"/>
<stop offset="1" stop-color="#FF6669"/>
</linearGradient>
<linearGradient id="paint7_linear" x1="343.323" y1="266.885" x2="343.804" y2="303.202" gradientUnits="userSpaceOnUse">
<stop stop-color="#446EFF"/>
<stop offset="0.423918" stop-color="#8B40FF"/>
<stop offset="1" stop-color="#FF6669"/>
</linearGradient>
<linearGradient id="paint8_linear" x1="343.323" y1="253.334" x2="343.804" y2="289.651" gradientUnits="userSpaceOnUse">
<stop stop-color="#446EFF"/>
<stop offset="0.423918" stop-color="#8B40FF"/>
<stop offset="1" stop-color="#FF6669"/>
</linearGradient>
<linearGradient id="paint9_linear" x1="343.323" y1="239.783" x2="343.804" y2="276.101" gradientUnits="userSpaceOnUse">
<stop stop-color="#446EFF"/>
<stop offset="0.423918" stop-color="#8B40FF"/>
<stop offset="1" stop-color="#FF6669"/>
</linearGradient>
<linearGradient id="paint10_linear" x1="343.323" y1="226.232" x2="343.804" y2="262.55" gradientUnits="userSpaceOnUse">
<stop stop-color="#446EFF"/>
<stop offset="0.423918" stop-color="#8B40FF"/>
<stop offset="1" stop-color="#FF6669"/>
</linearGradient>
<linearGradient id="paint11_linear" x1="343.323" y1="212.681" x2="343.804" y2="248.999" gradientUnits="userSpaceOnUse">
<stop stop-color="#446EFF"/>
<stop offset="0.423918" stop-color="#8B40FF"/>
<stop offset="1" stop-color="#FF6669"/>
</linearGradient>
<linearGradient id="paint12_linear" x1="343.323" y1="199.131" x2="343.804" y2="235.449" gradientUnits="userSpaceOnUse">
<stop stop-color="#446EFF"/>
<stop offset="0.423918" stop-color="#8B40FF"/>
<stop offset="1" stop-color="#FF6669"/>
</linearGradient>
<linearGradient id="paint13_linear" x1="343.323" y1="185.58" x2="343.804" y2="221.899" gradientUnits="userSpaceOnUse">
<stop stop-color="#446EFF"/>
<stop offset="0.423918" stop-color="#8B40FF"/>
<stop offset="1" stop-color="#FF6669"/>
</linearGradient>
<linearGradient id="paint14_linear" x1="343.323" y1="172.03" x2="343.804" y2="208.348" gradientUnits="userSpaceOnUse">
<stop stop-color="#446EFF"/>
<stop offset="0.423918" stop-color="#8B40FF"/>
<stop offset="1" stop-color="#FF6669"/>
</linearGradient>
<linearGradient id="paint15_linear" x1="343.323" y1="158.479" x2="343.804" y2="194.797" gradientUnits="userSpaceOnUse">
<stop stop-color="#446EFF"/>
<stop offset="0.423918" stop-color="#8B40FF"/>
<stop offset="1" stop-color="#FF6669"/>
</linearGradient>
<linearGradient id="paint16_linear" x1="31.1814" y1="219.275" x2="30.6999" y2="182.958" gradientUnits="userSpaceOnUse">
<stop stop-color="#446EFF"/>
<stop offset="0.423918" stop-color="#8B40FF"/>
<stop offset="1" stop-color="#FF6669"/>
</linearGradient>
<linearGradient id="paint17_linear" x1="31.1811" y1="232.826" x2="30.6997" y2="196.509" gradientUnits="userSpaceOnUse">
<stop stop-color="#446EFF"/>
<stop offset="0.423918" stop-color="#8B40FF"/>
<stop offset="1" stop-color="#FF6669"/>
</linearGradient>
<linearGradient id="paint18_linear" x1="31.1811" y1="246.377" x2="30.6997" y2="210.06" gradientUnits="userSpaceOnUse">
<stop stop-color="#446EFF"/>
<stop offset="0.423918" stop-color="#8B40FF"/>
<stop offset="1" stop-color="#FF6669"/>
</linearGradient>
<linearGradient id="paint19_linear" x1="31.1811" y1="259.928" x2="30.6997" y2="223.61" gradientUnits="userSpaceOnUse">
<stop stop-color="#446EFF"/>
<stop offset="0.423918" stop-color="#8B40FF"/>
<stop offset="1" stop-color="#FF6669"/>
</linearGradient>
<linearGradient id="paint20_linear" x1="31.1811" y1="273.478" x2="30.6997" y2="237.16" gradientUnits="userSpaceOnUse">
<stop stop-color="#446EFF"/>
<stop offset="0.423918" stop-color="#8B40FF"/>
<stop offset="1" stop-color="#FF6669"/>
</linearGradient>
<linearGradient id="paint21_linear" x1="31.1811" y1="287.029" x2="30.6997" y2="250.711" gradientUnits="userSpaceOnUse">
<stop stop-color="#446EFF"/>
<stop offset="0.423918" stop-color="#8B40FF"/>
<stop offset="1" stop-color="#FF6669"/>
</linearGradient>
<linearGradient id="paint22_linear" x1="31.1811" y1="300.58" x2="30.6997" y2="264.262" gradientUnits="userSpaceOnUse">
<stop stop-color="#446EFF"/>
<stop offset="0.423918" stop-color="#8B40FF"/>
<stop offset="1" stop-color="#FF6669"/>
</linearGradient>
<linearGradient id="paint23_linear" x1="31.1811" y1="314.13" x2="30.6997" y2="277.812" gradientUnits="userSpaceOnUse">
<stop stop-color="#446EFF"/>
<stop offset="0.423918" stop-color="#8B40FF"/>
<stop offset="1" stop-color="#FF6669"/>
</linearGradient>
<linearGradient id="paint24_linear" x1="31.1811" y1="327.681" x2="30.6997" y2="291.363" gradientUnits="userSpaceOnUse">
<stop stop-color="#446EFF"/>
<stop offset="0.423918" stop-color="#8B40FF"/>
<stop offset="1" stop-color="#FF6669"/>
</linearGradient>
<linearGradient id="paint25_linear" x1="31.1811" y1="341.232" x2="30.6997" y2="304.913" gradientUnits="userSpaceOnUse">
<stop stop-color="#446EFF"/>
<stop offset="0.423918" stop-color="#8B40FF"/>
<stop offset="1" stop-color="#FF6669"/>
</linearGradient>
<linearGradient id="paint26_linear" x1="31.1811" y1="354.782" x2="30.6997" y2="318.465" gradientUnits="userSpaceOnUse">
<stop stop-color="#446EFF"/>
<stop offset="0.423918" stop-color="#8B40FF"/>
<stop offset="1" stop-color="#FF6669"/>
</linearGradient>
<linearGradient id="paint27_linear" x1="31.1811" y1="368.333" x2="30.6997" y2="332.016" gradientUnits="userSpaceOnUse">
<stop stop-color="#446EFF"/>
<stop offset="0.423918" stop-color="#8B40FF"/>
<stop offset="1" stop-color="#FF6669"/>
</linearGradient>
<linearGradient id="paint28_linear" x1="31.1811" y1="381.883" x2="30.6997" y2="345.566" gradientUnits="userSpaceOnUse">
<stop stop-color="#446EFF"/>
<stop offset="0.423918" stop-color="#8B40FF"/>
<stop offset="1" stop-color="#FF6669"/>
</linearGradient>
<linearGradient id="paint29_linear" x1="31.1811" y1="395.435" x2="30.6997" y2="359.116" gradientUnits="userSpaceOnUse">
<stop stop-color="#446EFF"/>
<stop offset="0.423918" stop-color="#8B40FF"/>
<stop offset="1" stop-color="#FF6669"/>
</linearGradient>
<linearGradient id="paint30_linear" x1="31.1811" y1="408.985" x2="30.6997" y2="372.666" gradientUnits="userSpaceOnUse">
<stop stop-color="#446EFF"/>
<stop offset="0.423918" stop-color="#8B40FF"/>
<stop offset="1" stop-color="#FF6669"/>
</linearGradient>
<linearGradient id="paint31_linear" x1="31.1811" y1="422.535" x2="30.6997" y2="386.218" gradientUnits="userSpaceOnUse">
<stop stop-color="#446EFF"/>
<stop offset="0.423918" stop-color="#8B40FF"/>
<stop offset="1" stop-color="#FF6669"/>
</linearGradient>
</defs>
</svg>
