<svg width="88" height="27" viewBox="0 0 88 27" fill="none" xmlns="http://www.w3.org/2000/svg">
<g clip-path="url(#clip0)">
<path d="M25.0871 19.1415C24.95 18.8126 24.8214 18.4669 24.6842 18.1718L24.0497 16.7637L24.024 16.7384C22.1378 12.6911 20.123 8.57638 17.9882 4.5291L17.9024 4.36047C17.6881 3.96417 17.4737 3.52571 17.2508 3.12099C16.9765 2.64037 16.7107 2.12603 16.2734 1.63698C15.8472 1.12528 15.3108 0.713011 14.7029 0.429926C14.095 0.146841 13.4308 0 12.7582 0C12.0856 0 11.4214 0.146841 10.8135 0.429926C10.2056 0.713011 9.66924 1.12528 9.24302 1.63698C8.84006 2.12603 8.53998 2.64037 8.26562 3.12099C8.05128 3.55944 7.83694 3.98946 7.61402 4.38576L7.52829 4.5544C5.42774 8.60168 3.37863 12.7164 1.49243 16.7637L1.44098 16.8143C1.25236 17.2527 1.02945 17.7081 0.815107 18.1971C0.677929 18.4922 0.54075 18.8126 0.403572 19.1668C0.0332174 20.0941 -0.0850484 21.1003 0.0604299 22.0863C0.205908 23.0722 0.610109 24.0039 1.2332 24.7895C1.85629 25.575 2.67675 26.1873 3.61374 26.5661C4.55073 26.9448 5.5719 27.0769 6.57661 26.9494C7.53983 26.8247 8.46734 26.5091 9.30303 26.0219C10.4176 25.4063 11.4893 24.5126 12.6896 23.2225C13.8899 24.5126 14.9874 25.4063 16.0762 26.0303C17.1233 26.6347 18.3091 26.9683 19.5228 26.9999C20.9284 27.0057 22.2885 26.5111 23.3522 25.6076C24.416 24.7041 25.1114 23.4526 25.3101 22.0842C25.5397 21.1008 25.462 20.0722 25.0871 19.133V19.1415ZM12.7754 20.5412C11.3007 18.6862 10.3404 16.9829 10.0146 15.5242C9.87967 14.9837 9.85057 14.4228 9.92891 13.8716C9.98893 13.4416 10.1518 13.0621 10.3747 12.7417C10.8892 12.0081 11.7894 11.5528 12.7754 11.5528C13.2436 11.5388 13.7081 11.6392 14.1271 11.8453C14.5461 12.0513 14.9065 12.3564 15.176 12.7333C15.3989 13.0706 15.5618 13.4416 15.6132 13.8716C15.699 14.3606 15.6647 14.9256 15.5275 15.5242C15.2017 16.9576 14.2415 18.6777 12.7754 20.5412ZM23.6982 21.7891C23.6008 22.4838 23.32 23.1413 22.8837 23.6961C22.4475 24.2509 21.8711 24.6835 21.2118 24.951C20.5603 25.2208 19.8401 25.2967 19.137 25.2208C18.4511 25.1365 17.7652 24.9173 17.0622 24.5126C15.8949 23.803 14.8453 22.9215 13.95 21.8987C15.7504 19.7064 16.8393 17.7081 17.2508 15.9289C17.448 15.0858 17.4737 14.3269 17.388 13.6271C17.2809 12.9637 17.0294 12.3309 16.6507 11.7721C16.2182 11.166 15.641 10.6738 14.9697 10.3385C14.2985 10.0033 13.5538 9.83542 12.8011 9.84959C11.215 9.84959 9.80031 10.5747 8.94294 11.7636C8.55699 12.3211 8.30755 12.9589 8.21418 13.6271C8.10272 14.3353 8.12844 15.1195 8.35136 15.9289C8.76289 17.7081 9.87747 19.7317 11.6522 21.9156C10.7721 22.9579 9.72002 23.8472 8.53998 24.5463C7.82836 24.951 7.15104 25.1618 6.46515 25.2461C5.39849 25.3805 4.32101 25.0954 3.46691 24.4528C2.61281 23.8102 2.05113 22.862 1.90396 21.8144C1.81823 21.1398 1.87824 20.4653 2.1526 19.7064C2.23834 19.4366 2.36694 19.1668 2.50412 18.8464C2.69274 18.4079 2.91565 17.9526 3.13 17.4973L3.16429 17.4382C5.0162 13.4163 7.03959 9.30995 9.14013 5.28797L9.22587 5.11933C9.44021 4.7146 9.65455 4.28458 9.87747 3.87985C10.1004 3.44983 10.3404 3.03667 10.6491 2.69939C10.9163 2.38575 11.2501 2.13351 11.6271 1.96044C12.0041 1.78737 12.4151 1.69768 12.8311 1.69768C13.2471 1.69768 13.6581 1.78737 14.0351 1.96044C14.4121 2.13351 14.7459 2.38575 15.0131 2.69939C15.3132 3.03667 15.5618 3.44983 15.7847 3.87985C15.9991 4.28458 16.2134 4.72303 16.4363 5.11933L16.5221 5.28797C18.614 9.30995 20.6374 13.4163 22.5236 17.4382L22.5493 17.4635C22.7723 17.902 22.9609 18.391 23.1752 18.8126C23.3124 19.1415 23.4496 19.4029 23.5353 19.6811C23.6982 20.44 23.7839 21.1145 23.6982 21.7891ZM35.6327 20.3557C34.9867 20.365 34.3468 20.2311 33.7605 19.964C33.1743 19.6968 32.6567 19.3033 32.2462 18.8126C31.3237 17.7671 30.8341 16.4189 30.8744 15.0352C30.8603 13.6213 31.3656 12.25 32.2976 11.1734C32.7287 10.6764 33.2653 10.2785 33.8697 10.0075C34.474 9.73653 35.1315 9.59917 35.7956 9.60507C36.4206 9.58825 37.0397 9.72801 37.5946 10.0112C38.1495 10.2944 38.6221 10.7117 38.9679 11.224L39.0536 9.90018H41.5571V20.0858H39.0451L38.9593 18.6018C38.6028 19.1488 38.11 19.597 37.5278 19.904C36.9456 20.2109 36.2933 20.3664 35.6327 20.3557ZM36.2843 17.9273C36.7816 17.9273 37.2189 17.7924 37.6304 17.5479C38.0077 17.278 38.3163 16.9239 38.5564 16.4939C38.7707 16.0639 38.8822 15.5495 38.8822 14.9761C38.9156 14.4782 38.817 13.9802 38.5961 13.5309C38.3752 13.0816 38.0395 12.6963 37.6218 12.4129C37.2205 12.167 36.7572 12.0366 36.2843 12.0366C35.8115 12.0366 35.3482 12.167 34.9469 12.4129C34.5696 12.6827 34.261 13.0368 34.0209 13.4669C33.7942 13.9411 33.6826 14.4607 33.6951 14.9846C33.6617 15.4826 33.7602 15.9806 33.9812 16.4299C34.2021 16.8792 34.5378 17.2644 34.9554 17.5479C35.3584 17.7924 35.7956 17.9273 36.2843 17.9273ZM45.844 7.1514C45.844 7.44652 45.7925 7.71634 45.6554 7.93556C45.5182 8.14636 45.3296 8.34029 45.0809 8.4752C44.8323 8.61011 44.5665 8.6607 44.2921 8.6607C44.0178 8.6607 43.7434 8.61011 43.4948 8.4752C43.2596 8.34646 43.0619 8.16069 42.9204 7.93556C42.7876 7.69537 42.7225 7.42465 42.7317 7.1514C42.7317 6.84786 42.7918 6.57804 42.9204 6.36724C43.0575 6.11429 43.2547 5.96251 43.4948 5.82761C43.7434 5.6927 44.0092 5.63367 44.2921 5.63367C44.5651 5.62749 44.8349 5.69105 45.0754 5.81816C45.3158 5.94526 45.5186 6.13155 45.6639 6.35881C45.7887 6.60464 45.8505 6.87673 45.844 7.1514ZM42.9289 20.0521V9.88332H45.6554V20.069H42.9204L42.9289 20.0521ZM52.943 12.5478V12.5815C52.8144 12.5225 52.6429 12.4972 52.5143 12.4719C52.3428 12.4382 52.2056 12.4382 52.0427 12.4382C51.2797 12.4382 50.7052 12.6574 50.328 13.1127C49.9165 13.5765 49.7278 14.2257 49.7278 15.0605V20.0605H46.9929V9.87489H49.5049L49.5907 11.4179C49.865 10.8783 50.1908 10.4735 50.6538 10.17C51.1143 9.87507 51.6565 9.72778 52.2056 9.74841C52.4028 9.74841 52.5914 9.76527 52.7543 9.799C52.8401 9.8243 52.8915 9.8243 52.943 9.84959V12.5478ZM54.0404 20.0521V5.70113H56.7668V11.1818C57.1526 10.6928 57.5899 10.3133 58.1386 10.0182C59.0073 9.59936 59.9941 9.48055 60.9399 9.68095C61.8857 9.88136 62.7352 10.3893 63.3514 11.1228C64.2759 12.1705 64.7656 13.5221 64.7232 14.9087C64.7373 16.3225 64.2319 17.6939 63.3 18.7705C62.8689 19.2674 62.3323 19.6654 61.7279 19.9364C61.1235 20.2073 60.4661 20.3447 59.8019 20.3388C59.1769 20.3556 58.5579 20.2159 58.003 19.9327C57.448 19.6495 56.9755 19.2321 56.6297 18.7199L56.5439 20.0437L54.0404 20.069V20.0521ZM59.3132 17.9273C59.8019 17.9273 60.2392 17.7924 60.6507 17.5479C61.0279 17.278 61.3366 16.9239 61.5767 16.4939C61.7996 16.0639 61.9025 15.5495 61.9025 14.9761C61.9025 14.4112 61.7996 13.8969 61.5767 13.4669C61.3515 13.0522 61.0352 12.6921 60.6507 12.4129C60.2494 12.167 59.786 12.0366 59.3132 12.0366C58.8404 12.0366 58.377 12.167 57.9757 12.4129C57.5899 12.6827 57.2898 13.0368 57.0412 13.4669C56.8145 13.9411 56.7029 14.4607 56.7154 14.9846C56.682 15.4826 56.7805 15.9806 57.0014 16.4299C57.2224 16.8792 57.5581 17.2644 57.9757 17.5479C58.3787 17.7924 58.8159 17.9273 59.3132 17.9273ZM65.752 20.0605V9.87489H68.2641L68.3498 11.1987C68.6655 10.6912 69.1133 10.276 69.6469 9.99579C70.1805 9.71561 70.7805 9.58072 71.3849 9.60507C72.076 9.59333 72.7553 9.78224 73.3379 10.1482C73.9204 10.5141 74.3803 11.0408 74.6601 11.6624C74.9601 12.3033 75.123 13.0958 75.123 13.9812V20.0858H72.388V14.3353C72.388 13.6271 72.2251 13.0706 71.8993 12.6574C71.5735 12.2527 71.1277 12.0334 70.5619 12.0334C70.1503 12.0334 69.7902 12.1178 69.473 12.3033C69.1729 12.4972 68.9243 12.7417 68.7357 13.0874C68.545 13.4369 68.4504 13.8293 68.4613 14.2257V20.0605H65.752ZM76.4863 20.0605V5.6927H79.2212V11.1734C79.5917 10.6816 80.0736 10.2815 80.6287 10.0049C81.1839 9.72828 81.7969 9.58271 82.4192 9.57977C83.0653 9.57048 83.7052 9.70435 84.2915 9.97147C84.8777 10.2386 85.3953 10.6321 85.8058 11.1228C86.7237 12.1705 87.21 13.5179 87.169 14.9003C87.1839 16.3142 86.6784 17.6858 85.7458 18.762C85.3147 19.259 84.7781 19.657 84.1737 19.9279C83.5694 20.1989 82.9119 20.3363 82.2478 20.3304C81.6228 20.3472 81.0037 20.2074 80.4488 19.9242C79.8939 19.641 79.4213 19.2237 79.0755 18.7115L78.9983 20.0353L76.4863 20.0605ZM81.7848 17.9273C82.2821 17.9273 82.7193 17.7924 83.1223 17.5479C83.5081 17.278 83.8082 16.9239 84.0568 16.4939C84.2711 16.0639 84.3826 15.5495 84.3826 14.9761C84.416 14.4782 84.3175 13.9802 84.0965 13.5309C83.8756 13.0816 83.5399 12.6963 83.1223 12.4129C82.721 12.167 82.2576 12.0366 81.7848 12.0366C81.312 12.0366 80.8486 12.167 80.4473 12.4129C80.07 12.6827 79.7614 13.0368 79.5213 13.4669C79.282 13.9369 79.1698 14.4596 79.1955 14.9846C79.1621 15.4826 79.2607 15.9806 79.4816 16.4299C79.7025 16.8792 80.0382 17.2644 80.4559 17.5479C80.8588 17.7924 81.2704 17.9273 81.7848 17.9273Z" fill="#FF385C"/>
</g>
<defs>
<clipPath id="clip0">
<rect width="87.1714" height="27" fill="white"/>
</clipPath>
</defs>
</svg>
