<svg width="216" height="216" viewBox="0 0 216 216" fill="none" xmlns="http://www.w3.org/2000/svg">
<g filter="url(#filter0_d)">
<rect x="60" y="30" width="96" height="95.9999" rx="24" fill="white"/>
<rect x="61" y="31" width="94" height="93.9999" rx="23" stroke="url(#paint0_linear)" stroke-width="2"/>
</g>
<g clip-path="url(#clip0)">
<path d="M108 58C96.9719 58 88 66.9719 88 78C88 89.028 96.9719 98 108 98C119.028 98 128 89.028 128 78C128 66.9719 119.028 58 108 58ZM104.878 75.346L112.089 77.7498C114.221 78.4602 115.653 80.447 115.653 82.6939C115.653 84.389 114.776 86.0188 113.248 87.1653C112.203 87.9484 110.919 88.4716 109.531 88.6942V91.8775H106.469V88.6941C105.081 88.4715 103.797 87.9483 102.752 87.1652C101.224 86.0188 100.347 84.389 100.347 82.6939H103.408C103.408 84.3532 105.511 85.7551 108 85.7551C110.489 85.7551 112.592 84.3532 112.592 82.6939C112.592 81.7668 112.001 80.947 111.122 80.654L103.91 78.2502C101.779 77.5398 100.347 75.5529 100.347 73.3061C100.347 71.611 101.224 69.9812 102.752 68.8347C103.797 68.0515 105.081 67.5284 106.469 67.3058V64.1224H109.531V67.3059C110.919 67.5285 112.203 68.0516 113.248 68.8348C114.776 69.9812 115.653 71.611 115.653 73.3061H112.592C112.592 71.6467 110.489 70.2449 108 70.2449C105.511 70.2449 103.408 71.6467 103.408 73.3061C103.408 74.2332 103.999 75.0529 104.878 75.346Z" fill="url(#paint1_linear)"/>
</g>
<defs>
<filter id="filter0_d" x="0" y="0" width="216" height="216" filterUnits="userSpaceOnUse" color-interpolation-filters="sRGB">
<feFlood flood-opacity="0" result="BackgroundImageFix"/>
<feColorMatrix in="SourceAlpha" type="matrix" values="0 0 0 0 0 0 0 0 0 0 0 0 0 0 0 0 0 0 127 0"/>
<feOffset dy="30"/>
<feGaussianBlur stdDeviation="30"/>
<feColorMatrix type="matrix" values="0 0 0 0 0.545098 0 0 0 0 0.25098 0 0 0 0 1 0 0 0 0.1 0"/>
<feBlend mode="normal" in2="BackgroundImageFix" result="effect1_dropShadow"/>
<feBlend mode="normal" in="SourceGraphic" in2="effect1_dropShadow" result="shape"/>
</filter>
<linearGradient id="paint0_linear" x1="168.939" y1="91.7143" x2="53.5417" y2="89.2577" gradientUnits="userSpaceOnUse">
<stop stop-color="#446EFF"/>
<stop offset="0.423918" stop-color="#8B40FF"/>
<stop offset="1" stop-color="#FF6669"/>
</linearGradient>
<linearGradient id="paint1_linear" x1="127" y1="97" x2="83.4864" y2="74.5876" gradientUnits="userSpaceOnUse">
<stop stop-color="#446EFF"/>
<stop offset="0.423918" stop-color="#8B40FF"/>
<stop offset="1" stop-color="#FF6669"/>
</linearGradient>
<clipPath id="clip0">
<rect width="40" height="40" fill="white" transform="translate(88 58)"/>
</clipPath>
</defs>
</svg>
