<svg width="65" height="20" viewBox="0 0 65 20" fill="none" xmlns="http://www.w3.org/2000/svg">
<path d="M48.0999 19.3333L53.624 13.3338L48.0999 7.33334H53.9284L56.6645 10.248L59.2991 7.33334H64.9244L59.4264 13.309L64.9998 19.3333H59.1473L56.4361 16.3948L53.7505 19.3333H48.0999Z" fill="#FF6600"/>
<path d="M48.0999 4.30911H42.1057V7.06028H48.0999V11.2065H42.1057V15.0123H48.0999V19.3333H37.7V0H48.0999V4.30911Z" fill="#FF6600"/>
<path d="M33.2047 0V7.89836H33.1552C32.16 6.74843 30.9166 6.34882 29.4739 6.34882C26.5186 6.34882 24.2924 8.36846 23.511 11.0387C22.6198 8.09646 20.3216 6.29368 16.9136 6.29368C14.1461 6.29368 11.9606 7.54253 10.8201 9.57751V7.04827H5.09948V4.30218H11.3423V0H0V19.3H5.09948V11.187H10.1823C10.0307 11.783 9.94987 12.4211 9.94987 13.0944C9.94987 17.1203 13.0092 19.9451 16.9136 19.9451C20.1969 19.9451 22.3606 18.3956 23.505 15.5705H19.135C18.5438 16.4192 18.0954 16.6713 16.9136 16.6713C15.5433 16.6713 14.3618 15.4693 14.3618 14.0445H23.2602C23.6461 17.2422 26.1239 20 29.5242 20C30.991 20 32.3339 19.2747 33.1552 18.05H33.2047V19.2994H37.7V0H33.2047ZM14.5037 11.2447C14.7873 10.0189 15.733 9.21769 16.9136 9.21769C18.2133 9.21769 19.111 9.99417 19.347 11.2447C19.4465 11.2447 14.5037 11.2447 14.5037 11.2447ZM30.4767 16.3612C28.8197 16.3612 27.79 14.8091 27.79 13.1885C27.79 11.4562 28.6857 9.79039 30.4767 9.79039C32.3339 9.79039 33.0738 11.4562 33.0738 13.1885C33.0735 14.8312 32.2895 16.3612 30.4767 16.3612Z" fill="#652C8F"/>
</svg>
