<svg width="216" height="216" viewBox="0 0 216 216" fill="none" xmlns="http://www.w3.org/2000/svg">
<g filter="url(#filter0_d)">
<rect x="60" y="30" width="96" height="96" rx="24" fill="white"/>
<rect x="61" y="31" width="94" height="94" rx="23" stroke="url(#paint0_linear)" stroke-width="2"/>
</g>
<g clip-path="url(#clip0)">
<path fill-rule="evenodd" clip-rule="evenodd" d="M121.144 79.1765H117.931C117.709 81.0537 116.966 82.7733 115.85 84.1861L118.886 87.2225C120.889 85.9753 123.564 86.2196 125.302 87.9582C127.327 89.9831 127.327 93.2777 125.302 95.3025C123.278 97.3274 119.983 97.3273 117.958 95.3025C116.219 93.5638 115.975 90.8896 117.222 88.8863L113.881 85.5445C113.845 83.4989 112.761 81.7001 111.13 80.6705C111.745 79.9509 112.118 79.0184 112.118 78C112.118 75.7295 110.27 73.8824 108 73.8824C105.729 73.8824 103.882 75.7295 103.882 78C103.882 79.0184 104.255 79.9509 104.869 80.6705C103.237 81.7011 102.154 83.5009 102.119 85.5445L98.7774 88.8863C100.025 90.8896 99.7804 93.5638 98.0417 95.3025C96.0169 97.3274 92.7223 97.3273 90.6975 95.3025C88.6726 93.2776 88.6726 89.983 90.6975 87.9582C92.4362 86.2196 95.1104 85.9753 97.1137 87.2225L100.15 84.1862C99.0343 82.7734 98.2907 81.0539 98.0695 79.1765H94.8565C94.3708 80.5459 93.0631 81.5295 91.5294 81.5295C89.5833 81.5295 88 79.9463 88 78.0001C88 76.054 89.5833 74.4707 91.5294 74.4707C93.0631 74.4707 94.3708 75.4544 94.8565 76.8236H98.0696C98.2907 74.946 99.0334 73.226 100.149 71.813L97.1137 68.7775C95.0864 70.0397 92.4183 69.7625 90.6976 68.0418C88.6727 66.017 88.6727 62.7224 90.6976 60.6976C92.7224 58.6728 96.017 58.6727 98.0418 60.6976C99.7805 62.4362 100.025 65.1104 98.7775 67.1137L101.813 70.1493C103.226 69.0334 104.946 68.2906 106.823 68.0696V64.8565C105.454 64.3708 104.471 63.0631 104.471 61.5294C104.471 59.5833 106.054 58 108 58C109.946 58 111.529 59.5833 111.529 61.5294C111.529 63.0631 110.546 64.3708 109.176 64.8565V68.0696C111.054 68.2907 112.774 69.0334 114.187 70.1493L117.222 67.1138C115.975 65.1105 116.219 62.4362 117.958 60.6976C119.983 58.6726 123.278 58.6727 125.302 60.6976C127.327 62.7224 127.327 66.017 125.302 68.0418C123.579 69.765 120.911 70.038 118.886 68.7775L115.851 71.8129C116.967 73.2259 117.709 74.946 117.93 76.8235H121.144C121.629 75.4543 122.937 74.4706 124.471 74.4706C126.417 74.4706 128 76.0539 128 78C128 79.9462 126.417 81.5294 124.471 81.5294C122.937 81.5294 121.629 80.5458 121.144 79.1765ZM108 79.7645C108.975 79.7645 109.765 78.9744 109.765 77.9998C109.765 77.0252 108.975 76.2351 108 76.2351C107.025 76.2351 106.235 77.0252 106.235 77.9998C106.235 78.9744 107.025 79.7645 108 79.7645ZM108 82.1177C106.054 82.1177 104.47 83.7009 104.47 85.6471V87.3562C105.216 87.6386 106.005 87.8342 106.823 87.9308V91.1436C105.454 91.6292 104.47 92.9369 104.47 94.4706C104.47 96.4168 106.054 98 108 98C109.946 98 111.529 96.4168 111.529 94.4706C111.529 92.9369 110.545 91.6292 109.176 91.1436V87.9308C109.994 87.8342 110.783 87.6386 111.529 87.3562V85.6471C111.529 83.7009 109.946 82.1177 108 82.1177Z" fill="url(#paint1_linear)"/>
</g>
<defs>
<filter id="filter0_d" x="0" y="0" width="216" height="216" filterUnits="userSpaceOnUse" color-interpolation-filters="sRGB">
<feFlood flood-opacity="0" result="BackgroundImageFix"/>
<feColorMatrix in="SourceAlpha" type="matrix" values="0 0 0 0 0 0 0 0 0 0 0 0 0 0 0 0 0 0 127 0"/>
<feOffset dy="30"/>
<feGaussianBlur stdDeviation="30"/>
<feColorMatrix type="matrix" values="0 0 0 0 0.545098 0 0 0 0 0.25098 0 0 0 0 1 0 0 0 0.1 0"/>
<feBlend mode="normal" in2="BackgroundImageFix" result="effect1_dropShadow"/>
<feBlend mode="normal" in="SourceGraphic" in2="effect1_dropShadow" result="shape"/>
</filter>
<linearGradient id="paint0_linear" x1="168.939" y1="91.7143" x2="53.5417" y2="89.2578" gradientUnits="userSpaceOnUse">
<stop stop-color="#446EFF"/>
<stop offset="0.423918" stop-color="#8B40FF"/>
<stop offset="1" stop-color="#FF6669"/>
</linearGradient>
<linearGradient id="paint1_linear" x1="126.5" y1="94" x2="79.107" y2="77.36" gradientUnits="userSpaceOnUse">
<stop stop-color="#446EFF"/>
<stop offset="0.423918" stop-color="#8B40FF"/>
<stop offset="1" stop-color="#FF6669"/>
</linearGradient>
<clipPath id="clip0">
<rect width="40" height="40" fill="white" transform="translate(88 58)"/>
</clipPath>
</defs>
</svg>
