<svg width="81" height="27" viewBox="0 0 81 27" fill="none" xmlns="http://www.w3.org/2000/svg">
<path d="M34.7144 14.2714C34.7144 18.0467 31.7703 20.8286 28.1572 20.8286C24.5442 20.8286 21.6001 18.0467 21.6001 14.2714C21.6001 10.4696 24.5442 7.71429 28.1572 7.71429C31.7703 7.71429 34.7144 10.4696 34.7144 14.2714ZM31.844 14.2714C31.844 11.9123 30.1376 10.2981 28.1572 10.2981C26.1768 10.2981 24.4705 11.9123 24.4705 14.2714C24.4705 16.6069 26.1768 18.2447 28.1572 18.2447C30.1376 18.2447 31.844 16.604 31.844 14.2714Z" fill="#EA4335"/>
<path d="M48.5999 14.2714C48.5999 18.0467 45.6558 20.8286 42.0427 20.8286C38.4297 20.8286 35.4856 18.0467 35.4856 14.2714C35.4856 10.4726 38.4297 7.71429 42.0427 7.71429C45.6558 7.71429 48.5999 10.4696 48.5999 14.2714ZM45.7295 14.2714C45.7295 11.9123 44.0231 10.2981 42.0427 10.2981C40.0623 10.2981 38.356 11.9123 38.356 14.2714C38.356 16.6069 40.0623 18.2447 42.0427 18.2447C44.0231 18.2447 45.7295 16.604 45.7295 14.2714Z" fill="#FBBC05"/>
<path d="M62.4857 8.10055V19.5787C62.4857 24.3002 59.6815 26.2286 56.3665 26.2286C53.246 26.2286 51.3678 24.1561 50.6595 22.4612L53.1211 21.4436C53.5595 22.4842 54.6335 23.7122 56.3636 23.7122C58.4856 23.7122 59.8006 22.4122 59.8006 19.9649V19.0454H59.7019C59.069 19.8208 57.8499 20.4982 56.3113 20.4982C53.0921 20.4982 50.1428 17.7137 50.1428 14.1307C50.1428 10.5218 53.0921 7.71429 56.3113 7.71429C57.8469 7.71429 59.0661 8.39168 59.7019 9.14401H59.8006V8.10343H62.4857V8.10055ZM60.0009 14.1307C60.0009 11.8795 58.4885 10.2336 56.5639 10.2336C54.6132 10.2336 52.9789 11.8795 52.9789 14.1307C52.9789 16.3589 54.6132 17.9818 56.5639 17.9818C58.4885 17.9818 60.0009 16.3589 60.0009 14.1307Z" fill="#4285F4"/>
<path d="M67.1143 0.771423V20.0571H64.0286V0.771423H67.1143Z" fill="#34A853"/>
<path d="M77.821 16.4325L80.1019 17.9225C79.3657 18.9897 77.5917 20.8286 74.5263 20.8286C70.7248 20.8286 67.8857 17.9491 67.8857 14.2714C67.8857 10.372 70.7489 7.71429 74.1975 7.71429C77.6701 7.71429 79.3687 10.4223 79.9239 11.8857L80.2286 12.6307L71.283 16.261C71.9678 17.5766 73.0329 18.2477 74.5263 18.2477C76.0228 18.2477 77.0607 17.5264 77.821 16.4325ZM70.8002 14.0734L76.7801 11.6403C76.4512 10.8214 75.4616 10.2508 74.297 10.2508C72.8036 10.2508 70.7248 11.5427 70.8002 14.0734Z" fill="#EA4335"/>
<path d="M10.4395 11.9213V9.18121H19.9167C20.0093 9.65876 20.0571 10.2237 20.0571 10.8352C20.0571 12.891 19.4803 15.4331 17.6214 17.2442C15.8132 19.0787 13.5029 20.0571 10.4425 20.0571C4.76996 20.0571 0 15.5554 0 10.0286C0 4.50179 4.76996 0 10.4425 0C13.5806 0 15.8162 1.1997 17.4958 2.76339L15.5113 4.69689C14.3069 3.59619 12.6751 2.74009 10.4395 2.74009C6.29718 2.74009 3.05744 5.99268 3.05744 10.0286C3.05744 14.0645 6.29718 17.317 10.4395 17.317C13.1264 17.317 14.6566 16.2659 15.6369 15.3108C16.4319 14.5362 16.9549 13.4297 17.1611 11.9184L10.4395 11.9213Z" fill="#4285F4"/>
</svg>
