<svg width="87" height="25" viewBox="0 0 87 25" fill="none" xmlns="http://www.w3.org/2000/svg">
<path d="M9.40188 4.16669V11.1487H3.02669V4.16669H0V20.8334H3.02669V14.0781H9.40188V20.8334H12.4286V4.16669H9.40188Z" fill="#33475B"/>
<path d="M21.988 15.4495C21.988 16.1153 21.7234 16.7539 21.2524 17.2247C20.7815 17.6955 20.1427 17.96 19.4766 17.96C18.8105 17.96 18.1718 17.6955 17.7008 17.2247C17.2298 16.7539 16.9652 16.1153 16.9652 15.4495V8.33337H14.0857V15.4495C14.0857 16.8774 14.6531 18.2468 15.6631 19.2565C16.6732 20.2661 18.043 20.8334 19.4714 20.8334C20.8998 20.8334 22.2697 20.2661 23.2797 19.2565C24.2897 18.2468 24.8571 16.8774 24.8571 15.4495V8.33337H21.988V15.4495Z" fill="#33475B"/>
<path d="M43.0939 9.04172C43.0939 7.57876 44.0237 7.11497 45.0423 7.11497C45.8633 7.11497 46.9478 7.76517 47.657 8.55406L49.4736 6.32608C48.5668 5.04953 46.7272 4.16669 45.2214 4.16669C42.2128 4.16669 40.0365 6.00098 40.0365 9.04172C40.0365 14.6833 46.6613 12.8937 46.6613 16.0508C46.6613 17.0246 45.753 17.8851 44.7128 17.8851C43.0724 17.8851 42.5409 17.0499 41.7873 16.1671L39.7715 18.3489C41.0609 19.9967 42.6512 20.8334 44.5567 20.8334C47.4149 20.8334 49.7143 18.9767 49.7143 16.0746C49.7143 9.81122 43.0896 11.7574 43.0896 9.04172" fill="#33475B"/>
<path d="M86.0396 18.9214C84.4264 18.9214 83.9681 18.1637 83.9681 17.0036V11.8685H86.4754V9.26647H83.9681V5.83337L81.2 7.18182V17.6418C81.2 20.3173 82.9006 21.6657 85.233 21.6657C85.5988 21.6729 85.9644 21.6412 86.3245 21.5708L86.9999 18.8724C86.6954 18.8954 86.3456 18.9183 86.0396 18.9183" fill="#33475B"/>
<path d="M32.8695 8.31199C31.4232 8.31199 30.4142 8.72877 29.4384 9.68076V4.16669H26.5142V14.3868C26.5142 18.2127 29.2967 20.8334 32.423 20.8334C35.8918 20.8334 38.9427 18.1663 38.9427 14.5742C38.9427 11.0271 36.1346 8.31349 32.8695 8.31349V8.31199ZM32.8514 17.9084C32.1951 17.9084 31.5537 17.715 31.008 17.3525C30.4624 16.9901 30.0371 16.475 29.786 15.8723C29.5349 15.2697 29.4692 14.6065 29.5972 13.9667C29.7252 13.3269 30.0412 12.7392 30.5052 12.2779C30.9693 11.8167 31.5605 11.5025 32.2041 11.3753C32.8477 11.248 33.5148 11.3133 34.1211 11.563C34.7273 11.8126 35.2455 12.2353 35.6101 12.7777C35.9747 13.3201 36.1693 13.9578 36.1693 14.6102C36.1693 15.4849 35.8197 16.3238 35.1975 16.9424C34.5752 17.5609 33.7313 17.9084 32.8514 17.9084Z" fill="#33475B"/>
<path d="M64.6285 14.5903C64.6285 10.9935 61.5836 8.33337 58.1088 8.33337C54.9825 8.33337 52.2 10.953 52.2 14.7776V25H55.1242V19.4805C56.0985 20.4306 57.1089 20.8487 58.5537 20.8487C61.8189 20.8487 64.627 18.1376 64.627 14.5903H64.6285ZM61.8596 14.5543C61.8596 15.2064 61.665 15.8439 61.3004 16.3861C60.9358 16.9283 60.4176 17.3509 59.8114 17.6004C59.2051 17.85 58.538 17.9153 57.8944 17.7881C57.2508 17.6608 56.6596 17.3468 56.1956 16.8857C55.7315 16.4246 55.4155 15.8371 55.2875 15.1976C55.1595 14.558 55.2252 13.8951 55.4763 13.2926C55.7275 12.6901 56.1527 12.1752 56.6983 11.8129C57.244 11.4506 57.8855 11.2573 58.5417 11.2573C59.4216 11.2573 60.2656 11.6046 60.8878 12.223C61.51 12.8413 61.8596 13.6799 61.8596 14.5543Z" fill="#33475B"/>
<path d="M73.3286 8.23144V5.25431C73.7108 5.07047 74.0345 4.77867 74.2619 4.41286C74.4893 4.04706 74.6111 3.6223 74.613 3.18804V3.11927C74.613 2.51127 74.3784 1.92818 73.9606 1.49826C73.5429 1.06834 72.9764 0.826812 72.3857 0.826812H72.3188C71.7281 0.826812 71.1616 1.06834 70.7439 1.49826C70.3261 1.92818 70.0915 2.51127 70.0915 3.11927V3.18804C70.0934 3.6223 70.2152 4.04706 70.4426 4.41286C70.67 4.77867 70.9937 5.07047 71.3759 5.25431V8.23144C70.2773 8.40444 69.2425 8.87315 68.3764 9.59011L60.444 3.23083C60.5002 3.02113 60.5301 2.80492 60.5331 2.58742C60.534 2.07652 60.3877 1.57682 60.1126 1.15154C59.8375 0.726263 59.4461 0.3945 58.9878 0.198219C58.5295 0.00193795 58.0249 -0.0500434 57.5379 0.0488499C57.0509 0.147743 56.6033 0.393069 56.2518 0.753795C55.9003 1.11452 55.6606 1.57444 55.5631 2.07539C55.4655 2.57633 55.5146 3.09579 55.7039 3.56806C55.8933 4.04033 56.2144 4.4442 56.6268 4.72858C57.0392 5.01295 57.5243 5.16506 58.0207 5.16567C58.4547 5.16367 58.8807 5.04458 59.2561 4.82027L67.0682 11.0756C66.3663 12.1668 66 13.4503 66.0172 14.7589C66.0345 16.0674 66.4343 17.3403 67.1647 18.4115L64.7889 20.8568C64.5968 20.7936 64.3966 20.7601 64.1949 20.7574C63.7874 20.7577 63.3891 20.8824 63.0504 21.1156C62.7117 21.3488 62.4478 21.6801 62.292 22.0676C62.1361 22.4552 62.0955 22.8816 62.175 23.2929C62.2546 23.7043 62.4509 24.0821 62.739 24.3787C63.0272 24.6753 63.3943 24.8773 63.794 24.9592C64.1936 25.0411 64.6079 24.9992 64.9845 24.8388C65.361 24.6784 65.6829 24.4068 65.9095 24.0582C66.1361 23.7096 66.2572 23.2997 66.2575 22.8802C66.2549 22.6727 66.2224 22.4666 66.1609 22.2689L68.5115 19.8496C69.278 20.4567 70.1693 20.8751 71.1172 21.073C72.0651 21.2708 73.0444 21.2427 73.98 20.9908C74.9157 20.739 75.783 20.27 76.5154 19.62C77.2479 18.9699 77.826 18.1559 78.2056 17.2404C78.5852 16.3248 78.7562 15.332 78.7054 14.3379C78.6547 13.3439 78.3835 12.375 77.9128 11.5054C77.4421 10.6359 76.7842 9.88873 75.9896 9.32124C75.195 8.75375 74.2848 8.38097 73.3286 8.23144ZM72.3545 18.0218C71.7115 18.0212 71.0831 17.8244 70.5488 17.4563C70.0144 17.0882 69.5981 16.5654 69.3523 15.9538C69.1066 15.3423 69.0426 14.6695 69.1682 14.0205C69.2939 13.3715 69.6037 12.7754 70.0585 12.3076C70.5133 11.8397 71.0926 11.5211 71.7232 11.3921C72.3538 11.263 73.0075 11.3292 73.6016 11.5824C74.1956 11.8356 74.7035 12.2644 75.0608 12.8145C75.4182 13.3646 75.6091 14.0115 75.6094 14.6732C75.6094 15.5609 75.2668 16.4122 74.6569 17.0399C74.0471 17.6676 73.2199 18.0202 72.3574 18.0202" fill="#FF7A59"/>
</svg>
