<svg width="28" height="28" viewBox="0 0 28 28" fill="none" xmlns="http://www.w3.org/2000/svg">
<path d="M14 0C6.2692 0 0 6.2692 0 14C0 21.7308 6.2692 28 14 28C21.7308 28 28 21.7308 28 14C28 6.2692 21.7308 0 14 0Z" fill="url(#paint0_linear)"/>
<path d="M14.0002 7.00675C11.133 7.00675 8.4103 6.7519 7.37034 9.41877C6.94078 10.5202 7.00316 11.9507 7.00316 13.999C7.00316 15.7964 6.94552 17.4857 7.37034 18.5785C8.40793 21.2469 11.1527 20.9913 13.9986 20.9913C16.7442 20.9913 19.575 21.2769 20.6276 18.5785C21.058 17.466 20.9948 16.0568 20.9948 13.999C20.9948 11.2674 21.1456 9.50399 19.8198 8.18002C18.4774 6.83869 16.6621 7.00675 13.997 7.00675H14.0002ZM13.3732 8.26681C19.3539 8.25734 20.1152 7.59299 19.6951 16.8221C19.5458 20.0863 17.0585 19.7281 14.001 19.7281C8.42609 19.7281 8.2658 19.5687 8.2658 13.9959C8.2658 8.35833 8.708 8.26996 13.3732 8.26523V8.26681ZM17.7352 9.42745C17.2717 9.42745 16.8958 9.80302 16.8958 10.2662C16.8958 10.7293 17.2717 11.1049 17.7352 11.1049C18.1987 11.1049 18.5746 10.7293 18.5746 10.2662C18.5746 9.80302 18.1987 9.42745 17.7352 9.42745ZM14.0002 10.4082C12.0158 10.4082 10.4073 12.0162 10.4073 13.999C10.4073 15.9818 12.0158 17.589 14.0002 17.589C15.9845 17.589 17.5923 15.9818 17.5923 13.999C17.5923 12.0162 15.9845 10.4082 14.0002 10.4082ZM14.0002 11.6683C17.0837 11.6683 17.0877 16.3298 14.0002 16.3298C10.9174 16.3298 10.9127 11.6683 14.0002 11.6683Z" fill="white"/>
<defs>
<linearGradient id="paint0_linear" x1="-3.0625" y1="3.5" x2="25.5315" y2="25.6794" gradientUnits="userSpaceOnUse">
<stop stop-color="#FFDD55"/>
<stop offset="0.5" stop-color="#FF543E"/>
<stop offset="1" stop-color="#C837AB"/>
</linearGradient>
</defs>
</svg>
