<svg width="28" height="28" viewBox="0 0 28 28" fill="none" xmlns="http://www.w3.org/2000/svg">
<g clip-path="url(#clip0)">
<path d="M14 27.999C21.732 27.999 28 21.731 28 13.999C28 6.26704 21.732 -0.000976562 14 -0.000976562C6.26801 -0.000976562 0 6.26704 0 13.999C0 21.731 6.26801 27.999 14 27.999Z" fill="#007AB9"/>
<path d="M22.3651 15.1259V20.8978H19.0187V15.5128C19.0187 14.1606 18.5355 13.2372 17.3239 13.2372C16.3992 13.2372 15.85 13.8589 15.6074 14.4609C15.5193 14.676 15.4966 14.9747 15.4966 15.2764V20.8976H12.1499C12.1499 20.8976 12.1949 11.7771 12.1499 10.833H15.4968V12.2592C15.4901 12.2704 15.4806 12.2814 15.4746 12.2922H15.4968V12.2592C15.9415 11.5749 16.7347 10.5966 18.5128 10.5966C20.7144 10.5966 22.3651 12.0351 22.3651 15.1259ZM8.64906 5.98145C7.50431 5.98145 6.75537 6.73288 6.75537 7.72015C6.75537 8.68646 7.4826 9.45961 8.60513 9.45961H8.62685C9.79405 9.45961 10.5198 8.68646 10.5198 7.72015C10.4976 6.73288 9.79405 5.98145 8.64906 5.98145ZM6.95427 20.8978H10.2997V10.833H6.95427V20.8978Z" fill="#F1F2F2"/>
</g>
<defs>
<clipPath id="clip0">
<rect width="28" height="28" fill="white"/>
</clipPath>
</defs>
</svg>
