<svg width="102" height="22" viewBox="0 0 102 22" fill="none" xmlns="http://www.w3.org/2000/svg">
<g clip-path="url(#clip0)">
<path d="M35.7341 12.7408L35.1235 14.5113H35.0727C34.9709 14.112 34.7843 13.5045 34.479 12.7756L31.2056 4.35741H28V17.7744H30.1201V9.49508C30.1201 8.97437 30.1201 8.38423 30.1031 7.65524C30.0862 7.29074 30.0523 7.01303 30.0353 6.80474H30.0862C30.1879 7.32545 30.3067 7.70731 30.3915 7.95031L34.3264 17.7397H35.8189L39.7199 7.86352C39.8047 7.63788 39.8895 7.1866 39.9743 6.80474H40.0252C39.9743 7.79409 39.9404 8.6793 39.9234 9.21737V17.7223H42.1792V4.32269H39.0924L35.7341 12.7408ZM44.3163 8.10652H46.5212V17.7223H44.3163V8.10652ZM45.4357 4.04498C45.0626 4.04498 44.7573 4.18384 44.5029 4.42683C44.2484 4.66983 44.1128 4.98226 44.1128 5.36411C44.1128 5.72861 44.2484 6.04104 44.5029 6.28403C44.7573 6.52703 45.0626 6.64853 45.4357 6.64853C45.8088 6.64853 46.1311 6.50967 46.3686 6.28403C46.623 6.04104 46.7587 5.72861 46.7587 5.36411C46.7587 4.99962 46.623 4.68719 46.3686 4.42683C46.1481 4.18384 45.8258 4.04498 45.4357 4.04498ZM54.3401 8.01973C53.9331 7.93295 53.5091 7.88088 53.102 7.88088C52.1013 7.88088 51.1854 8.10652 50.4222 8.5578C49.6589 9.00908 49.0484 9.63394 48.6583 10.415C48.2512 11.2134 48.0477 12.1333 48.0477 13.1921C48.0477 14.112 48.2512 14.9278 48.6413 15.6742C49.0314 16.4032 49.5741 16.9933 50.3035 17.3925C50.9989 17.7917 51.813 18 52.7289 18C53.7804 18 54.6793 17.7744 55.3917 17.3578L55.4087 17.3404V15.2576L55.3239 15.327C55.0016 15.57 54.6285 15.7783 54.2553 15.8998C53.8652 16.0387 53.5091 16.1081 53.2038 16.1081C52.3218 16.1081 51.6264 15.8477 51.1345 15.275C50.6257 14.7195 50.3713 13.9558 50.3713 13.0012C50.3713 12.0118 50.6257 11.2308 51.1515 10.658C51.6773 10.0852 52.3727 9.79015 53.2207 9.79015C53.9331 9.79015 54.6624 10.0331 55.3239 10.5191L55.4087 10.5886V8.38423L55.3917 8.36687C55.1034 8.24537 54.7811 8.10652 54.3401 8.01973ZM61.6163 7.95031C61.0736 7.95031 60.5647 8.12388 60.1238 8.48837C59.7506 8.8008 59.4962 9.25208 59.2757 9.79015H59.2588V8.10652H57.0539V17.7223H59.2588V12.8103C59.2588 11.9771 59.4284 11.2829 59.8015 10.7795C60.1746 10.2588 60.6496 9.99843 61.2262 9.99843C61.4297 9.99843 61.6333 10.0505 61.8877 10.0852C62.1251 10.1546 62.2947 10.2241 62.4135 10.3109L62.4983 10.3803V8.12388L62.4474 8.10652C62.2948 8.00238 61.9895 7.95031 61.6163 7.95031ZM67.6204 7.89823C66.077 7.89823 64.8389 8.36687 63.9739 9.2868C63.0919 10.2067 62.6679 11.4738 62.6679 13.0706C62.6679 14.5633 63.1089 15.7783 63.9569 16.6635C64.8049 17.5314 65.9583 17.9827 67.3999 17.9827C68.9095 17.9827 70.1137 17.514 70.9787 16.5767C71.8606 15.6395 72.2847 14.3898 72.2847 12.845C72.2847 11.3176 71.8776 10.1026 71.0465 9.21737C70.2494 8.33216 69.0791 7.89823 67.6204 7.89823ZM69.3844 15.2923C68.9773 15.8304 68.3328 16.0907 67.5356 16.0907C66.7385 16.0907 66.094 15.8304 65.636 15.2576C65.1781 14.7195 64.9576 13.9385 64.9576 12.9491C64.9576 11.9251 65.195 11.144 65.636 10.5886C66.094 10.0331 66.7215 9.75543 67.5187 9.75543C68.2989 9.75543 68.9095 10.0158 69.3504 10.5539C69.7914 11.0919 70.0289 11.873 70.0289 12.8971C69.995 13.9385 69.8084 14.7543 69.3844 15.2923ZM77.2033 12.0986C76.5079 11.8036 76.0669 11.5779 75.8634 11.387C75.6938 11.2134 75.609 10.9704 75.609 10.658C75.609 10.3976 75.7107 10.1373 75.9652 9.96372C76.2196 9.79015 76.5079 9.70336 76.9319 9.70336C77.3051 9.70336 77.6952 9.77279 78.0683 9.87693C78.4414 9.98107 78.7807 10.1373 79.052 10.3456L79.1368 10.415V8.29745L79.0859 8.28009C78.8315 8.17595 78.4923 8.07181 78.0853 7.98502C77.6782 7.91559 77.3051 7.88088 76.9998 7.88088C75.9482 7.88088 75.0832 8.14123 74.4048 8.71401C73.7263 9.25208 73.4041 9.98107 73.4041 10.8316C73.4041 11.2828 73.4719 11.6821 73.6246 12.0118C73.7772 12.3416 73.9977 12.6541 74.303 12.9144C74.6083 13.1574 75.0493 13.4351 75.6599 13.6955C76.1687 13.9211 76.5588 14.0947 76.7962 14.2335C77.0337 14.3724 77.1863 14.5286 77.3051 14.6501C77.3899 14.789 77.4408 14.9625 77.4408 15.1882C77.4408 15.8304 76.9658 16.1428 75.9991 16.1428C75.6259 16.1428 75.2358 16.0734 74.7779 15.9172C74.32 15.761 73.8959 15.5353 73.5398 15.275L73.455 15.2055V17.4099L73.5058 17.4272C73.8281 17.5834 74.2182 17.6876 74.6931 17.8091C75.168 17.8959 75.592 17.9653 75.9652 17.9653C77.1015 17.9653 78.0344 17.7049 78.6958 17.1322C79.3743 16.5767 79.7305 15.8651 79.7305 14.9452C79.7305 14.303 79.5608 13.7302 79.1877 13.2963C78.6958 12.8797 78.0853 12.4458 77.2033 12.0986ZM85.548 7.89823C84.0046 7.89823 82.7664 8.36687 81.9014 9.2868C81.0364 10.2067 80.5955 11.4738 80.5955 13.0706C80.5955 14.5633 81.0364 15.7783 81.8845 16.6635C82.7325 17.5314 83.8859 17.9827 85.3275 17.9827C86.837 17.9827 88.0413 17.514 88.9063 16.5767C89.7882 15.6395 90.2122 14.3898 90.2122 12.845C90.2122 11.3176 89.8052 10.1026 88.9741 9.21737C88.1769 8.33216 87.0066 7.89823 85.548 7.89823ZM87.295 15.2923C86.8879 15.8304 86.2434 16.0907 85.4462 16.0907C84.6321 16.0907 84.0046 15.8304 83.5466 15.2576C83.0887 14.7195 82.8682 13.9385 82.8682 12.9491C82.8682 11.9251 83.1057 11.144 83.5466 10.5886C84.0046 10.0331 84.6321 9.75543 85.4293 9.75543C86.1925 9.75543 86.8201 10.0158 87.2611 10.5539C87.702 11.0919 87.9395 11.873 87.9395 12.8971C87.9395 13.9385 87.719 14.7543 87.295 15.2923ZM102 9.96372V8.10652H99.7781V5.25997L99.7103 5.27733L97.6071 5.91954L97.5563 5.93689V8.10652H94.2319V6.89153C94.2319 6.3361 94.3676 5.90218 94.6051 5.62447C94.8425 5.34676 95.1987 5.2079 95.6397 5.2079C95.945 5.2079 96.2672 5.27733 96.6234 5.43354L96.7082 5.48561V3.52427L96.6573 3.50691C96.3521 3.40277 95.945 3.33334 95.4192 3.33334C94.7577 3.33334 94.1811 3.48956 93.6553 3.74991C93.1295 4.04498 92.7394 4.44419 92.4511 4.98226C92.1627 5.50297 92.0101 6.09311 92.0101 6.77003V8.10652H90.4667V9.94636H92.0101V17.7223H94.2319V9.96372H97.5563V14.9105C97.5563 16.9412 98.4891 17.9653 100.355 17.9653C100.66 17.9653 100.982 17.9132 101.288 17.8612C101.61 17.7917 101.847 17.7049 101.983 17.6355L102 17.6182V15.761L101.915 15.8304C101.78 15.9172 101.661 15.9866 101.457 16.0387C101.288 16.0907 101.135 16.1081 101.016 16.1081C100.575 16.1081 100.27 16.004 100.05 15.7436C99.846 15.5006 99.7442 15.1014 99.7442 14.5113V9.96372H102Z" fill="#737373"/>
<path d="M0 0H10.6667V10.6667H0V0Z" fill="#F25022"/>
<path d="M11.3333 0H21.9999V10.6667H11.3333V0Z" fill="#7FBA00"/>
<path d="M0 11.3333H10.6667V22H0V11.3333Z" fill="#00A4EF"/>
<path d="M11.3333 11.3333H21.9999V22H11.3333V11.3333Z" fill="#FFB900"/>
</g>
<defs>
<clipPath id="clip0">
<rect width="102" height="22" fill="white"/>
</clipPath>
</defs>
</svg>
