<svg width="54" height="54" viewBox="0 0 54 54" fill="none" xmlns="http://www.w3.org/2000/svg">
<path d="M0 13.0909C0 5.861 5.861 0 13.0909 0H40.9091C48.139 0 54 5.861 54 13.0909V40.9091C54 48.139 48.139 54 40.9091 54H13.0909C5.861 54 0 48.139 0 40.9091V13.0909Z" fill="url(#paint0_linear)"/>
<g clip-path="url(#clip0)">
<path d="M40.5 34.6802L13.5 28.8184V19.8276L40.5 25.6894V34.6802Z" fill="url(#paint1_linear)"/>
<g filter="url(#filter0_b)">
<path d="M32.0404 20.7647L13.5 28.8184V19.8276L40.5 8.09998C40.5 13.5696 37.1851 18.5314 32.0404 20.7647Z" fill="url(#paint2_linear)"/>
</g>
<g filter="url(#filter1_b)">
<path d="M21.9596 34.1353L40.5 26.0815V35.0723L13.5 46.8C13.5 41.3304 16.8106 36.3685 21.9596 34.1353Z" fill="url(#paint3_linear)"/>
</g>
</g>
<defs>
<filter id="filter0_b" x="9.5" y="4.09998" width="35" height="28.7184" filterUnits="userSpaceOnUse" color-interpolation-filters="sRGB">
<feFlood flood-opacity="0" result="BackgroundImageFix"/>
<feGaussianBlur in="BackgroundImage" stdDeviation="2"/>
<feComposite in2="SourceAlpha" operator="in" result="effect1_backgroundBlur"/>
<feBlend mode="normal" in="SourceGraphic" in2="effect1_backgroundBlur" result="shape"/>
</filter>
<filter id="filter1_b" x="9.5" y="22.0815" width="35" height="28.7184" filterUnits="userSpaceOnUse" color-interpolation-filters="sRGB">
<feFlood flood-opacity="0" result="BackgroundImageFix"/>
<feGaussianBlur in="BackgroundImage" stdDeviation="2"/>
<feComposite in2="SourceAlpha" operator="in" result="effect1_backgroundBlur"/>
<feBlend mode="normal" in="SourceGraphic" in2="effect1_backgroundBlur" result="shape"/>
</filter>
<linearGradient id="paint0_linear" x1="61.2783" y1="34.7143" x2="-3.63281" y2="33.3325" gradientUnits="userSpaceOnUse">
<stop stop-color="#446EFF"/>
<stop offset="0.423918" stop-color="#8B40FF"/>
<stop offset="1" stop-color="#FF6669"/>
</linearGradient>
<linearGradient id="paint1_linear" x1="39" y1="22.6235" x2="17.3487" y2="38.3054" gradientUnits="userSpaceOnUse">
<stop stop-color="white"/>
<stop offset="1" stop-color="white" stop-opacity="0.5"/>
</linearGradient>
<linearGradient id="paint2_linear" x1="39" y1="12" x2="13" y2="24" gradientUnits="userSpaceOnUse">
<stop stop-color="white"/>
<stop offset="1" stop-color="white" stop-opacity="0.1"/>
</linearGradient>
<linearGradient id="paint3_linear" x1="13" y1="44" x2="42.5" y2="28.5" gradientUnits="userSpaceOnUse">
<stop stop-color="white"/>
<stop offset="1" stop-color="white" stop-opacity="0.1"/>
</linearGradient>
<clipPath id="clip0">
<rect width="27" height="38.7" fill="white" transform="translate(13.5 8.09998)"/>
</clipPath>
</defs>
</svg>
