<svg width="107" height="48" viewBox="0 0 107 48" fill="none" xmlns="http://www.w3.org/2000/svg">
<rect width="107" height="48" rx="10" fill="url(#paint0_linear)" fill-opacity="0.1"/>
<path d="M23.7898 33.2386C27.6761 33.2386 30.3182 30.7074 30.3097 27.179C30.3182 23.8381 27.983 21.4347 24.8381 21.4347C23.304 21.4347 21.983 22.0739 21.3693 22.9347H21.267L21.7188 18.5625H29.3466V15.5455H18.6761L17.8494 24.75L21.1307 25.3381C21.6676 24.6136 22.7074 24.1619 23.7386 24.1619C25.4943 24.1705 26.7557 25.4403 26.7557 27.2727C26.7557 29.0881 25.5199 30.3409 23.7898 30.3409C22.3239 30.3409 21.1392 29.4205 21.054 28.0653H17.4744C17.5426 31.0824 20.1761 33.2386 23.7898 33.2386ZM34.5007 33.2216C35.5916 33.2216 36.5376 32.3097 36.5462 31.1761C36.5376 30.0597 35.5916 29.1477 34.5007 29.1477C33.3757 29.1477 32.4467 30.0597 32.4553 31.1761C32.4467 32.3097 33.3757 33.2216 34.5007 33.2216ZM45.6101 33.3835C49.9993 33.3835 52.6499 30.0426 52.6584 24.2898C52.6669 18.5795 49.9822 15.3068 45.6101 15.3068C41.2294 15.3068 38.5703 18.571 38.5618 24.2898C38.5447 30.0256 41.2124 33.375 45.6101 33.3835ZM45.6101 30.3239C43.6072 30.3239 42.3118 28.3125 42.3203 24.2898C42.3288 20.3267 43.6158 18.3324 45.6101 18.3324C47.5959 18.3324 48.8913 20.3267 48.8913 24.2898C48.8999 28.3125 47.6044 30.3239 45.6101 30.3239Z" fill="#1C2D57"/>
<path d="M77.9998 13.1665L81.3473 19.9482L88.8332 21.0423L83.4165 26.3182L84.6948 33.7715L77.9998 30.2507L71.3048 33.7715L72.5832 26.3182L67.1665 21.0423L74.6523 19.9482L77.9998 13.1665Z" fill="url(#paint1_linear)" stroke="url(#paint2_linear)" stroke-width="2" stroke-linecap="round" stroke-linejoin="round"/>
<defs>
<linearGradient id="paint0_linear" x1="121.422" y1="30.8572" x2="-6.96751" y2="24.7646" gradientUnits="userSpaceOnUse">
<stop stop-color="#446EFF"/>
<stop offset="0.423918" stop-color="#8B40FF"/>
<stop offset="1" stop-color="#FF6669"/>
</linearGradient>
<linearGradient id="paint1_linear" x1="91.7535" y1="26.4126" x2="65.7101" y2="25.8296" gradientUnits="userSpaceOnUse">
<stop stop-color="#446EFF"/>
<stop offset="0.423918" stop-color="#8B40FF"/>
<stop offset="1" stop-color="#FF6669"/>
</linearGradient>
<linearGradient id="paint2_linear" x1="91.7535" y1="26.4126" x2="65.7101" y2="25.8296" gradientUnits="userSpaceOnUse">
<stop stop-color="#446EFF"/>
<stop offset="0.423918" stop-color="#8B40FF"/>
<stop offset="1" stop-color="#FF6669"/>
</linearGradient>
</defs>
</svg>
