<svg width="28" height="28" viewBox="0 0 28 28" fill="none" xmlns="http://www.w3.org/2000/svg">
<g clip-path="url(#clip0)">
<path d="M14.0009 27.9998C21.7328 27.9998 28.0007 21.7318 28.0007 13.9999C28.0007 6.26796 21.7328 0 14.0009 0C6.26894 0 0.000976562 6.26796 0.000976562 13.9999C0.000976562 21.7318 6.26894 27.9998 14.0009 27.9998Z" fill="#55ACEE"/>
<path d="M22.5755 10.0614C21.9755 10.3275 21.3301 10.5074 20.6533 10.5878C21.3444 10.1737 21.8747 9.51863 22.125 8.73676C21.4784 9.12033 20.7619 9.39859 20 9.54858C19.3896 8.89847 18.5198 8.49219 17.5568 8.49219C15.709 8.49219 14.2104 9.9908 14.2104 11.8386C14.2104 12.1008 14.2401 12.3561 14.2975 12.6012C11.5164 12.4617 9.0505 11.1295 7.3999 9.10436C7.11191 9.59849 6.9467 10.1737 6.9467 10.7869C6.9467 11.9476 7.53791 12.9723 8.43533 13.5723C7.88704 13.555 7.3707 13.4045 6.91975 13.1532C6.9195 13.1675 6.9195 13.1817 6.9195 13.1957C6.9195 14.8171 8.07347 16.1694 9.60402 16.4766C9.32352 16.5535 9.02729 16.5942 8.72257 16.5942C8.50645 16.5942 8.29707 16.5735 8.09293 16.5345C8.51868 17.8637 9.75426 18.8313 11.2189 18.8585C10.0734 19.7561 8.63074 20.2909 7.06249 20.2909C6.79297 20.2909 6.52594 20.2752 6.26465 20.244C7.74479 21.1938 9.5042 21.7476 11.3939 21.7476C17.549 21.7476 20.9151 16.6486 20.9151 12.2261C20.9151 12.0811 20.9119 11.9366 20.9054 11.7934C21.5597 11.3217 22.127 10.7325 22.5755 10.0614Z" fill="#F1F2F2"/>
</g>
<defs>
<clipPath id="clip0">
<rect width="28" height="28" fill="white"/>
</clipPath>
</defs>
</svg>
