<svg width="103" height="25" viewBox="0 0 103 25" fill="none" xmlns="http://www.w3.org/2000/svg">
<g clip-path="url(#clip0)">
<path d="M36.5268 8.82489V10.2681H36.5685C37.0588 9.49542 37.8727 8.58542 39.6768 8.58542C41.0803 8.58542 42.157 9.34216 42.6184 10.4852H42.66C43.0542 9.90731 43.506 9.46987 44.0123 9.16016C44.6115 8.79296 45.278 8.58223 46.1176 8.58223C48.0178 8.58223 49.7001 9.89135 49.7001 13.1929V19.4543H46.8033V13.6303C46.8033 11.9572 46.2329 10.9897 45.0473 10.9897C44.1789 10.9897 43.5477 11.5709 43.3073 12.2861C43.224 12.5319 43.1856 12.8672 43.1856 13.1482V19.4575H40.2888V13.394C40.2888 11.9732 39.7408 10.9865 38.5712 10.9865C37.6356 10.9865 37.0492 11.7209 36.8088 12.3499C36.7063 12.6181 36.6742 12.9279 36.6742 13.2184V19.4543H33.7743V8.82489H36.5268ZM64.6518 8.82489V10.8301H64.7319C65.2638 9.29745 66.5263 8.58542 67.6351 8.58542C67.9138 8.58542 68.0676 8.60777 68.292 8.65247V11.4367C68.026 11.3984 67.7793 11.3601 67.4332 11.3601C66.1771 11.3601 65.3023 12.0881 65.0812 13.228C65.0331 13.4643 65.0171 13.7197 65.0171 14.0135V19.4575H62.0434V8.82489H64.6518ZM72.3295 5.30304V8.64928H74.8417V11.3569H72.3295V15.3513C72.3295 16.6445 72.6595 17.2703 73.6401 17.2703C74.1015 17.2703 74.4412 17.2128 74.736 17.1394L74.7744 19.3841C74.3803 19.5309 73.5407 19.6906 72.6884 19.6906C71.6854 19.6906 70.8491 19.3426 70.3396 18.8029C69.7564 18.1867 69.4872 17.1777 69.4872 15.7409V5.30304H72.3295ZM31.7555 19.4543H28.8715V5.30304H31.7555V19.4543ZM24.065 15.6579C24.065 15.8526 24.0489 16.057 23.9945 16.2326C23.7702 16.9702 23.0043 17.5928 22.0494 17.5928C21.2515 17.5928 20.617 17.1426 20.617 16.1879C20.617 14.7287 22.2321 14.3232 24.0682 14.3328V15.6579H24.065ZM26.9457 13.1131C26.9457 10.7024 25.9139 8.58542 22.4243 8.58542C20.6331 8.58542 19.2103 9.08672 18.4349 9.53373L19.002 11.4687C19.7102 11.0217 20.8414 10.6545 21.9116 10.6545C23.6836 10.6513 23.972 11.6539 23.972 12.2957V12.4489C20.1107 12.4425 17.6722 13.774 17.6722 16.488C17.6722 18.1452 18.9123 19.697 21.0721 19.697C22.4019 19.697 23.5106 19.1701 24.1771 18.324H24.2412C24.2412 18.324 24.6834 20.16 27.1123 19.4575C26.9842 18.6912 26.9425 17.877 26.9425 16.8967V13.1131H26.9457ZM3.18516 5.30304C3.48317 6.80055 4.32913 11.1494 4.32913 11.1494C4.68482 12.9374 5.01167 14.8117 5.2584 16.2933H5.30327C5.54359 14.7191 5.92171 13.228 6.32547 11.3825L7.75142 5.30304H10.9077L12.2408 11.5389C12.59 13.2727 12.8688 14.6106 13.0899 16.223H13.1316C13.3719 14.5946 13.6859 13.2025 14.0288 11.4208L15.3106 5.30304H18.3387L14.5864 19.4543C12.1959 19.9748 11.2795 19.0169 10.9526 17.497C10.6258 15.974 9.98488 13.0779 9.98488 13.0779C9.65483 11.491 9.39847 10.3735 9.21903 8.74507H9.17417C8.91782 10.3575 8.64865 11.4878 8.2513 13.0747L6.67795 19.4575C4.2362 19.9428 3.39024 19.2244 2.9224 17.2735C2.51865 15.6036 0 5.30623 0 5.30623H3.18516V5.30304ZM57.2368 15.6579C57.2368 15.8526 57.2208 16.057 57.1663 16.2326C56.942 16.9702 56.1762 17.5928 55.2212 17.5928C54.4234 17.5928 53.7889 17.1426 53.7889 16.1879C53.7889 14.7287 55.4039 14.3232 57.24 14.3328V15.6579H57.2368ZM60.1176 13.1131C60.1176 10.7024 59.0857 8.58542 55.5962 8.58542C53.8049 8.58542 52.3822 9.08672 51.6067 9.53373L52.1739 11.4687C52.882 11.0217 54.0132 10.6545 55.0835 10.6545C56.8523 10.6513 57.1439 11.6539 57.1439 12.2957V12.4489C53.2858 12.4425 50.8473 13.774 50.8473 16.488C50.8473 18.1452 52.0906 19.697 54.2471 19.697C55.5737 19.697 56.6857 19.1701 57.349 18.324H57.4163C57.4163 18.324 57.8585 20.16 60.2874 19.4575C60.1592 18.6912 60.1176 17.877 60.1176 16.8967V13.1131Z" fill="#041E42"/>
<path d="M86.7618 14.5424C87.0484 15.0498 87.029 15.616 86.7231 15.8746L81.436 19.6419C80.8853 19.966 80.061 19.5732 79.5941 18.7516C79.124 17.9268 79.2077 17.0071 79.7584 16.683L85.6122 13.914C85.9793 13.77 86.4752 14.0351 86.7618 14.5424ZM93.7201 14.5424C94.0099 14.0351 94.5026 13.7732 94.8697 13.9107L100.727 16.6798C101.277 17.0038 101.358 17.9235 100.891 18.7484C100.421 19.5699 99.5933 19.9594 99.046 19.6386L93.7588 15.8713C93.4561 15.616 93.4336 15.0465 93.7201 14.5424ZM90.2393 16.5848C90.8157 16.5848 91.2891 16.886 91.3535 17.282L91.9234 23.8217C91.9234 24.4698 91.1796 25 90.2426 25C89.3088 25 88.5617 24.4698 88.5617 23.8217L89.1285 17.282C89.1929 16.886 89.6662 16.5848 90.2393 16.5848ZM93.7588 9.1287L99.046 5.35808C99.5933 5.03404 100.421 5.42354 100.891 6.24836C101.358 7.07319 101.277 7.99293 100.727 8.31697L94.8697 11.0893C94.5026 11.2268 94.0067 10.9649 93.7201 10.4576C93.4336 9.95025 93.4561 9.384 93.7588 9.1287ZM85.6122 11.0893L79.7584 8.31697C79.211 7.99293 79.1272 7.07319 79.5941 6.24836C80.061 5.42354 80.8886 5.03404 81.436 5.35808L86.7231 9.1287C87.029 9.38073 87.0484 9.95025 86.7618 10.4576C86.4752 10.9649 85.9793 11.2268 85.6122 11.0893ZM89.1285 7.71799L88.5617 1.17832C88.5617 0.530244 89.3056 0 90.2426 0C91.1796 0 91.9234 0.530244 91.9234 1.17832L91.3535 7.71799C91.2891 8.11076 90.8157 8.41516 90.2393 8.41516C89.6662 8.41516 89.1929 8.11076 89.1285 7.71799ZM102.321 19.6157V19.4521H102.466C102.514 19.4521 102.546 19.4848 102.546 19.5339C102.546 19.5797 102.514 19.6157 102.466 19.6157H102.321ZM102.202 19.9136C102.202 19.93 102.214 19.9463 102.234 19.9463H102.295C102.311 19.9463 102.327 19.93 102.327 19.9136V19.727H102.427L102.507 19.9234C102.514 19.9365 102.524 19.9463 102.536 19.9463H102.61C102.633 19.9463 102.649 19.9234 102.639 19.9005C102.61 19.8416 102.581 19.7794 102.552 19.7172C102.601 19.7008 102.675 19.6517 102.675 19.5339C102.675 19.4095 102.575 19.3375 102.475 19.3375H102.234C102.218 19.3375 102.202 19.3539 102.202 19.3703V19.9136ZM101.941 19.6419C101.941 19.3768 102.153 19.1608 102.414 19.1608C102.675 19.1608 102.887 19.3735 102.887 19.6419C102.887 19.907 102.678 20.1231 102.414 20.1231C102.15 20.1231 101.941 19.907 101.941 19.6419ZM101.828 19.6419C101.828 19.9692 102.089 20.2376 102.414 20.2376C102.736 20.2376 103 19.9692 103 19.6419C103 19.3146 102.736 19.0462 102.414 19.0462C102.089 19.0462 101.828 19.3146 101.828 19.6419Z" fill="#FFC124"/>
</g>
<defs>
<clipPath id="clip0">
<rect width="103" height="25" fill="white"/>
</clipPath>
</defs>
</svg>
